<?xml version="1.0" standalone="no"?>
<!DOCTYPE svg PUBLIC "-//W3C//DTD SVG 1.1//EN" "http://www.w3.org/Graphics/SVG/1.1/DTD/svg11.dtd" >
<!--
2013-9-30: Created.
-->
<svg>
<metadata>
Created by iconfont
</metadata>
<defs>

<font id="iconfont" horiz-adv-x="1024" >
  <font-face
    font-family="iconfont"
    font-weight="500"
    font-stretch="normal"
    units-per-em="1024"
    ascent="896"
    descent="-128"
  />
    <missing-glyph />
    
    <glyph glyph-name="fenxiang" unicode="&#58916;" d="M972.8 346.0864v-294.7584A128.0768 128.0768 0 0 0 844.8-76.8H179.2a128 128 0 0 0-128 128V716.8c0 70.7328 57.1904 128 127.872 128h202.3168a25.6 25.6 0 0 1 0 51.2H179.072A179.072 179.072 0 0 1 0 716.8v-665.6a179.2 179.2 0 0 1 179.2-179.2h665.6c98.944 0 179.2 80.2816 179.2 179.328V346.0864a25.6 25.6 0 0 1-51.2 0zM960 768c-353.4592 0-640-286.5408-640-640a25.6 25.6 0 0 1 51.2 0c0 325.1968 263.6032 588.8 588.8 588.8a25.6 25.6 0 0 1 0 51.2zM720.1024 833.8432l256-102.4a25.6 25.6 0 0 1 18.9952 47.5136l-256 102.4a25.6 25.6 0 0 1-18.9952-47.5136zM808.8064 547.5328l194.6368 189.312a25.6 25.6 0 1 1-35.6864 36.7104L773.12 584.2432a25.6 25.6 0 1 1 35.6864-36.7104z"  horiz-adv-x="1024" />

    
    <glyph glyph-name="fanhui" unicode="&#58917;" d="M710.153924 887.019603L266.007127 435.307476a81.118646 81.118646 0 0 1 0.861532-114.476097l446.192936-441.050666a26.922883 26.922883 0 0 1 37.853573 38.284339L304.722232 359.115718a27.27288 27.27288 0 0 0-0.323074 38.445877L748.545955 849.273722A26.922883 26.922883 0 1 1 710.180847 886.99268z"  horiz-adv-x="1024" />

    
    <glyph glyph-name="guanbi" unicode="&#58918;" d="M512 439.689846L94.247385 857.442462a39.542154 39.542154 0 0 1-55.689847 0 39.266462 39.266462 0 0 1 0-55.689847L456.310154 384 38.557538-33.752615a39.542154 39.542154 0 0 1 0-55.689847 39.266462 39.266462 0 0 1 55.689847 0L512 328.310154l417.752615-417.752616c15.163077-15.163077 40.290462-15.36 55.689847 0a39.266462 39.266462 0 0 1 0 55.689847L567.689846 384 985.442462 801.752615a39.542154 39.542154 0 0 1 0 55.689847 39.266462 39.266462 0 0 1-55.689847 0L512 439.689846z"  horiz-adv-x="1024" />

    
    <glyph glyph-name="bofang" unicode="&#58919;" d="M512 896C230.4 896 0 665.6 0 384s230.4-512 512-512 512 230.4 512 512S793.6 896 512 896z m0-981.333333C253.866667-85.333333 42.666667 125.866667 42.666667 384S253.866667 853.333333 512 853.333333s469.333333-211.2 469.333333-469.333333-211.2-469.333333-469.333333-469.333333zM672 454.4l-170.666667 113.066667c-57.6 38.4-106.666667 12.8-106.666666-57.6v-256c0-70.4 46.933333-96 106.666666-57.6l170.666667 113.066666c57.6 42.666667 57.6 106.666667 0 145.066667z"  horiz-adv-x="1024" />

    
    <glyph glyph-name="kefu" unicode="&#58920;" d="M55.351351 342.597189v-110.924108a83.027027 83.027027 0 0 1 166.054054 0v110.924108a83.027027 83.027027 0 0 1-166.054054 0z m763.101406-211.552865A137.852541 137.852541 0 0 0 774.918919 231.673081v110.924108A138.378378 138.378378 0 0 0 912.328649 480.864865C898.131027 681.928649 730.499459 840.648649 525.837838 840.648649 321.148541 840.648649 153.544649 681.928649 139.347027 480.864865A138.461405 138.461405 0 0 0 276.756757 342.597189v-110.924108a138.378378 138.378378 0 0 0-276.756757 0v110.924108a138.378378 138.378378 0 0 0 83.303784 126.865297C91.883243 706.476973 286.72 896 525.837838 896s433.954595-189.523027 442.534054-426.537514A138.461405 138.461405 0 0 0 1051.675676 342.597189v-110.924108a138.378378 138.378378 0 0 0-184.790487-130.269405 470.763243 470.763243 0 0 0-188.858811-121.21946A96.809514 96.809514 0 0 0 580.912432-114.162162h-82.528864c-53.690811 0-97.113946 43.174054-97.113946 96.864865 0 53.607784 43.284757 96.864865 97.141621 96.864865h82.473514c34.954378 0 65.536-18.265946 82.639567-45.803244a415.273514 415.273514 0 0 1 154.900757 97.28zM830.27027 342.597189v-110.924108a83.027027 83.027027 0 0 1 166.054054 0v110.924108a83.027027 83.027027 0 0 1-166.054054 0zM498.438919-58.810811h82.473513c23.302919 0 41.79027 18.487351 41.790271 41.513514 0 23.053838-18.570378 41.513514-41.790271 41.513513h-82.473513c-23.302919 0-41.79027-18.487351-41.79027-41.513513 0-23.053838 18.570378-41.513514 41.79027-41.513514z"  horiz-adv-x="1051" />

    
    <glyph glyph-name="shenfenzheng" unicode="&#58921;" d="M768 167.384615v7.876923 11.815385c-11.815385 110.276923-122.092308 196.923077-256 196.923077s-244.184615-86.646154-256-192.984615v-23.63077c0-43.323077 35.446154-78.769231 78.769231-78.76923h354.461538c43.323077 0 78.769231 35.446154 78.769231 78.76923zM512-128C228.430769-128 0 100.430769 0 384S228.430769 896 512 896s512-228.430769 512-512-228.430769-512-512-512z m0 555.323077c94.523077 0 169.353846 74.830769 169.353846 169.353846S606.523077 769.969231 512 769.969231s-169.353846-78.769231-169.353846-173.292308 74.830769-169.353846 169.353846-169.353846z"  horiz-adv-x="1024" />

    
    <glyph glyph-name="duigou" unicode="&#58922;" d="M512 896C228.430769 896 0 667.569231 0 384s228.430769-512 512-512 512 228.430769 512 512S795.569231 896 512 896z m0-945.230769C271.753846-49.230769 78.769231 143.753846 78.769231 384S271.753846 817.230769 512 817.230769s433.230769-192.984615 433.230769-433.230769-192.984615-433.230769-433.230769-433.230769zM716.8 565.169231l-208.738462-248.123077c-15.753846-15.753846-43.323077-19.692308-59.076923-7.876923L299.323077 423.384615c-15.753846 11.815385-43.323077 7.876923-55.138462-7.876923-11.815385-15.753846-7.876923-43.323077 7.876923-55.138461l149.661539-114.215385c19.692308-15.753846 47.261538-23.630769 74.830769-23.630769 35.446154 0 70.892308 15.753846 94.523077 43.323077l208.738462 248.123077c15.753846 15.753846 11.815385 43.323077-3.938462 55.138461-19.692308 15.753846-43.323077 15.753846-59.076923-3.938461z"  horiz-adv-x="1024" />

    
    <glyph glyph-name="shuoming" unicode="&#58923;" d="M481.834667 350.165333A42.538667 42.538667 0 0 0 512 362.666667a128 128 0 1 1-128 128 42.666667 42.666667 0 0 0-85.333333 0 213.333333 213.333333 0 1 0 256-209.066667v-46.933333a42.666667 42.666667 0 0 0-85.333334 0v85.333333c0 11.776 4.778667 22.442667 12.501334 30.165333zM512-128C229.248-128 0 101.248 0 384S229.248 896 512 896s512-229.248 512-512-229.248-512-512-512z m0 85.333333c235.648 0 426.666667 191.018667 426.666667 426.666667S747.648 810.666667 512 810.666667 85.333333 619.648 85.333333 384s191.018667-426.666667 426.666667-426.666667z m0 106.666667a42.666667 42.666667 0 1 0 0 85.333333 42.666667 42.666667 0 0 0 0-85.333333z"  horiz-adv-x="1024" />

    
    <glyph glyph-name="zanting" unicode="&#58924;" d="M512-128C228.266667-128 0 100.266667 0 384S228.266667 896 512 896s512-228.266667 512-512-228.266667-512-512-512z m0 42.666667c260.266667 0 469.333333 209.066667 469.333333 469.333333S772.266667 853.333333 512 853.333333 42.666667 644.266667 42.666667 384s209.066667-469.333333 469.333333-469.333333z m-106.666667 682.666666c12.8 0 21.333333-8.533333 21.333334-21.333333v-384c0-12.8-8.533333-21.333333-21.333334-21.333333s-21.333333 8.533333-21.333333 21.333333V576c0 12.8 8.533333 21.333333 21.333333 21.333333z m213.333334 0c12.8 0 21.333333-8.533333 21.333333-21.333333v-384c0-12.8-8.533333-21.333333-21.333333-21.333333s-21.333333 8.533333-21.333334 21.333333V576c0 12.8 8.533333 21.333333 21.333334 21.333333z"  horiz-adv-x="1024" />

    
    <glyph glyph-name="shoucang" unicode="&#58925;" d="M142.31918 355.732873l350.13559-373.653781c54.296613-63.852817 139.806023-63.883844 195.033436 1.054906l362.204951 388.670672c42.661625 48.866952 65.466202 112.130263 65.466203 182.902021a279.239726 279.239726 0 0 1-501.018122 169.653647 30.99561 30.99561 0 0 0-25.534922-12.131415 30.99561 30.99561 0 0 0-25.503895 12.131415A279.239726 279.239726 0 0 1 62.053272 554.706691c0-72.850542 28.792718-144.242832 77.411458-195.498835 1.054906-1.116959 1.985705-2.264944 2.85445-3.474983z m-54.606879-31.926409A349.732244 349.732244 0 0 0 0 554.706691C0 743.193506 152.806184 895.99969 341.292999 895.99969c95.065613 0 183.708713-39.155615 247.313317-106.111096A340.486306 340.486306 0 0 0 835.95066 895.99969c188.486815 0 341.292999-152.806184 341.292999-341.292999 0-80.793361-25.069522-154.636755-72.198982-213.463257-1.147986-1.923651-2.482131-3.754223-4.095516-5.491715l-5.181449-5.553768c-2.699317-3.071637-5.491715-6.112247-8.315138-9.090804-0.620533-0.620533-1.210039-1.241065-1.861598-1.799545L733.810974-58.069375c-79.055869-93.048882-209.553901-93.017855-287.616918-1.147985L90.783938 319.959161a31.243823 31.243823 0 0 0-3.102664 3.847303z"  horiz-adv-x="1179" />

    
    <glyph glyph-name="jiantoushang" unicode="&#58926;" d="M910.222222 99.555556c-17.066667 0-34.133333 5.688889-45.511111 17.066666L551.822222 486.4c-11.377778 5.688889-17.066667 11.377778-34.133333 11.377778-5.688889 0-22.755556-5.688889-28.444445-11.377778l-329.955555-364.088889c-22.755556-22.755556-56.888889-22.755556-79.644445-5.688889-22.755556 22.755556-22.755556 56.888889-5.688888 79.644445l329.955555 364.088889c28.444444 34.133333 73.955556 51.2 119.466667 51.2s85.333333-22.755556 119.466666-56.888889l312.888889-364.088889c22.755556-22.755556 17.066667-56.888889-5.688889-79.644445-11.377778-5.688889-28.444444-11.377778-39.822222-11.377777z"  horiz-adv-x="1024" />

    
    <glyph glyph-name="jiantoushang1" unicode="&#58927;" d="M910.222222 99.555556c-17.066667 0-34.133333 5.688889-45.511111 17.066666L551.822222 486.4c-11.377778 5.688889-17.066667 11.377778-34.133333 11.377778-5.688889 0-22.755556-5.688889-28.444445-11.377778l-329.955555-364.088889c-22.755556-22.755556-56.888889-22.755556-79.644445-5.688889-22.755556 22.755556-22.755556 56.888889-5.688888 79.644445l329.955555 364.088889c28.444444 34.133333 73.955556 51.2 119.466667 51.2s85.333333-22.755556 119.466666-56.888889l312.888889-364.088889c22.755556-22.755556 17.066667-56.888889-5.688889-79.644445-11.377778-5.688889-28.444444-11.377778-39.822222-11.377777z"  horiz-adv-x="1024" />

    
    <glyph glyph-name="jiantouyou" unicode="&#58928;" d="M312.888889-99.555556c-17.066667 0-28.444444 5.688889-39.822222 17.066667-22.755556 22.755556-17.066667 56.888889 5.688889 79.644445l364.088888 329.955555c11.377778 11.377778 17.066667 22.755556 17.066667 34.133333 0 11.377778-5.688889 22.755556-17.066667 34.133334L273.066667 708.266667c-22.755556 22.755556-28.444444 56.888889-5.688889 79.644444 22.755556 22.755556 56.888889 28.444444 79.644444 5.688889l364.088889-312.888889c34.133333-28.444444 56.888889-73.955556 56.888889-119.466667s-17.066667-85.333333-51.2-119.466666l-364.088889-329.955556c-11.377778-5.688889-28.444444-11.377778-39.822222-11.377778z"  horiz-adv-x="1024" />

    
    <glyph glyph-name="jiantouxia" unicode="&#58929;" d="M517.688889 99.555556c-45.511111 0-85.333333 17.066667-119.466667 51.2L73.955556 514.844444c-22.755556 22.755556-17.066667 56.888889 5.688888 79.644445 22.755556 22.755556 56.888889 17.066667 79.644445-5.688889l329.955555-364.088889c5.688889-5.688889 17.066667-11.377778 28.444445-11.377778s22.755556 5.688889 34.133333 17.066667l312.888889 364.088889c22.755556 22.755556 56.888889 28.444444 79.644445 5.688889 22.755556-22.755556 28.444444-56.888889 5.688888-79.644445L637.155556 156.444444c-28.444444-39.822222-68.266667-56.888889-119.466667-56.888888 5.688889 0 0 0 0 0z"  horiz-adv-x="1024" />

    
    <glyph glyph-name="saoyisao" unicode="&#58930;" d="M665.6 768a21.333333 21.333333 0 1 0 0 42.666667h123.648A149.482667 149.482667 0 0 0 938.666667 661.184v-133.504a21.333333 21.333333 0 1 0-42.666667 0v133.504A106.816 106.816 0 0 1 789.248 768h-123.669333zM896 220.032a21.333333 21.333333 0 1 0 42.666667 0v-113.258667A149.397333 149.397333 0 0 0 789.333333-42.666667H234.666667c-82.389333 0-149.333333 66.986667-149.333334 149.205334v122.752a21.333333 21.333333 0 0 0 42.666667 0v-122.752A106.773333 106.773333 0 0 1 234.666667 0h554.666666c58.88 0 106.666667 47.808 106.666667 106.773333v113.28zM128 532.949333a21.333333 21.333333 0 1 0-42.666667 0v128.213334C85.333333 743.701333 152.170667 810.666667 234.624 810.666667h128.725333a21.333333 21.333333 0 0 0 0-42.666667h-128.725333A106.730667 106.730667 0 0 1 128 661.141333v-128.192zM106.666667 362.666667a21.333333 21.333333 0 0 0 0 42.666666h810.666666a21.333333 21.333333 0 0 0 0-42.666666H106.666667z"  horiz-adv-x="1024" />

    
    <glyph glyph-name="wode" unicode="&#58931;" d="M512 332.8c-127.9744 0-230.4 115.2512-230.4 256s102.4256 256 230.4 256 230.4-115.2512 230.4-256-102.4256-256-230.4-256z m0 51.2c98.2528 0 179.2 91.0592 179.2 204.8s-80.9472 204.8-179.2 204.8-179.2-91.0592-179.2-204.8 80.9472-204.8 179.2-204.8zM128 102.4a179.2 179.2 0 0 0 179.3792 179.2h409.2416C815.6416 281.6 896 201.2672 896 102.4a179.2 179.2 0 0 0-179.3792-179.2H307.3792C208.3584-76.8 128 3.5328 128 102.4z m51.2 0c0-70.5792 57.4464-128 128.1792-128h409.2416A128 128 0 0 1 844.8 102.4c0 70.5792-57.4464 128-128.1792 128H307.3792A128 128 0 0 1 179.2 102.4z"  horiz-adv-x="1024" />

    
    <glyph glyph-name="shouye" unicode="&#58932;" d="M362.666667 0.085333V256.149333c0 36.266667 33.109333 63.850667 72.533333 63.850667h153.6c39.253333 0 72.533333-27.648 72.533333-63.850667v-256.064h59.904c61.269333 0 110.762667 47.957333 110.762667 106.730667V481.834667L557.162667 756.672a63.808 63.808 0 0 1-90.325334 0L192 481.834667v-375.018667c0-58.88 49.386667-106.730667 110.762667-106.730667H362.666667z m42.666666 0h213.333334V256.149333c0 10.709333-12.586667 21.184-29.866667 21.184h-153.6c-17.408 0-29.866667-10.389333-29.866667-21.184v-256.064z m469.333334 439.082667v-332.352c0-82.645333-68.885333-149.397333-153.429334-149.397333H302.762667C218.133333-42.581333 149.333333 24.064 149.333333 106.816V439.168l-27.584-27.584a21.333333 21.333333 0 1 0-30.165333 30.165333L436.672 786.837333a106.474667 106.474667 0 0 0 150.656 0l345.088-345.088a21.333333 21.333333 0 0 0-30.165333-30.165333L874.666667 439.168z"  horiz-adv-x="1024" />

    
    <glyph glyph-name="fenlei" unicode="&#58933;" d="M575.68 160a160.32 160.32 0 1 1 160.32 160.32H599.893333c-13.461333 0-24.192-10.752-24.192-24.192V160zM736 362.666667A202.666667 202.666667 0 1 0 533.333333 160V296.106667A66.432 66.432 0 0 0 599.872 362.666667H736zM490.666667 160a202.666667 202.666667 0 1 0-202.666667 202.666667h136.128A66.432 66.432 0 0 0 490.666667 296.128V160z m-202.666667 160.32a160.32 160.32 0 1 1 160.32-160.32V296.106667c0 13.44-10.730667 24.192-24.192 24.192H288zM533.333333 608.021333A202.666667 202.666667 0 1 0 736 405.333333H599.893333A66.432 66.432 0 0 0 533.333333 471.872V608z m202.666667-160.341333a160.32 160.32 0 1 1-160.32 160.32v-136.128c0-13.44 10.730667-24.192 24.192-24.192H736zM448.32 608a160.32 160.32 0 1 1-160.32-160.32h136.128c13.461333 0 24.192 10.752 24.192 24.192V608zM288 405.333333A202.666667 202.666667 0 1 0 490.666667 608v-136.128A66.432 66.432 0 0 0 424.128 405.333333H288z"  horiz-adv-x="1024" />

    
    <glyph glyph-name="xiaoxi" unicode="&#58934;" d="M544 734.4639999999999a330.666667 330.666667 0 0 0 298.666667-329.130667h-0.341334c0.213333-1.493333 0.341333-2.986667 0.341334-4.565333v-219.434667h39.68a32 32 0 0 0 0-64h-212.053334a160 160 0 0 0-316.586666 0H141.909333a32 32 0 1 0 0 64h39.424v219.434667c0 1.578667 0.128 3.072 0.341334 4.565333H181.333333a330.666667 330.666667 0 0 0 298.666667 329.130667V768a32 32 0 1 0 64 0v-33.536z m-298.666667-553.130667h533.333334v219.434667c0 1.578667 0.128 3.072 0.341333 4.565333h-0.341333a266.666667 266.666667 0 1 1-533.333334 0h-0.341333c0.213333-1.493333 0.341333-2.986667 0.341333-4.565333v-219.434667z m359.765334-64H418.901333a96 96 0 0 1 186.197334 0z"  horiz-adv-x="1024" />

    
    <glyph glyph-name="faxian" unicode="&#58935;" d="M512-76.8c-253.44 0-460.8 207.36-460.8 460.8S258.56 844.8 512 844.8s460.8-207.36 460.8-460.8-207.36-460.8-460.8-460.8z m0 51.2c225.28 0 409.6 184.32 409.6 409.6S737.28 793.6 512 793.6 102.4 609.28 102.4 384s184.32-409.6 409.6-409.6z m0 204.8c-143.36 0-281.6 104.96-281.6 204.8s138.24 204.8 281.6 204.8 281.6-104.96 281.6-204.8-138.24-204.8-281.6-204.8z m0 51.2c117.76 0 230.4 87.04 230.4 153.6s-112.64 153.6-230.4 153.6-230.4-87.04-230.4-153.6 112.64-153.6 230.4-153.6z m0 51.2c-56.32 0-102.4 46.08-102.4 102.4s46.08 102.4 102.4 102.4 102.4-46.08 102.4-102.4-46.08-102.4-102.4-102.4z m0 51.2c28.16 0 51.2 23.04 51.2 51.2s-23.04 51.2-51.2 51.2-51.2-23.04-51.2-51.2 23.04-51.2 51.2-51.2z"  horiz-adv-x="1024" />

    
    <glyph glyph-name="sousuo" unicode="&#58936;" d="M474.453333 11.946667c-225.28 0-409.6 184.32-409.6 409.6s184.32 409.6 409.6 409.6 409.6-184.32 409.6-409.6-184.32-409.6-409.6-409.6z m0 68.266666c187.733333 0 341.333333 153.6 341.333334 341.333334s-153.6 341.333333-341.333334 341.333333-341.333333-153.6-341.333333-341.333333 153.6-341.333333 341.333333-341.333334z m252.586667-54.613333c-13.653333 13.653333-10.24 37.546667 3.413333 47.786667s37.546667 10.24 47.786667-3.413334l64.853333-78.506666c13.653333-13.653333 10.24-37.546667-3.413333-47.786667s-37.546667-10.24-47.786667 3.413333l-64.853333 78.506667z"  horiz-adv-x="1024" />

    
    <glyph glyph-name="liulan" unicode="&#58937;" d="M614.4-128C276.48-128 0 97.28 0 384S276.48 896 614.4 896s614.4-225.28 614.4-512-276.48-512-614.4-512z m0 102.4c286.72 0 512 184.32 512 409.6s-225.28 409.6-512 409.6S102.4 609.28 102.4 384s225.28-409.6 512-409.6z m0 153.6c-143.36 0-256 112.64-256 256s112.64 256 256 256 256-112.64 256-256-112.64-256-256-256z m0 102.4c87.04 0 153.6 66.56 153.6 153.6s-66.56 153.6-153.6 153.6-153.6-66.56-153.6-153.6 66.56-153.6 153.6-153.6z"  horiz-adv-x="1228" />

    
    <glyph glyph-name="yigouxuan" unicode="&#58941;" d="M196.923077 896h630.153846a196.923077 196.923077 0 0 0 196.923077-196.923077v-630.153846a196.923077 196.923077 0 0 0-196.923077-196.923077H196.923077a196.923077 196.923077 0 0 0-196.923077 196.923077V699.076923a196.923077 196.923077 0 0 0 196.923077 196.923077z m0-78.769231a118.153846 118.153846 0 0 1-118.153846-118.153846v-630.153846a118.153846 118.153846 0 0 1 118.153846-118.153846h630.153846a118.153846 118.153846 0 0 1 118.153846 118.153846V699.076923a118.153846 118.153846 0 0 1-118.153846 118.153846H196.923077z m584.900923-258.205538a36.509538 36.509538 0 0 0 1.260308-51.633231l-299.480616-313.107692c-0.118154-0.157538-0.393846-0.236308-0.630154-0.472616l-0.393846-0.551384c-2.166154-2.126769-4.726154-3.229538-7.207384-4.726154-1.575385-0.866462-2.796308-2.166154-4.411077-2.835692a35.800615 35.800615 0 0 0-27.490462-0.07877c-1.260308 0.512-2.284308 1.614769-3.544615 2.284308-2.756923 1.457231-5.592615 2.835692-8.034462 5.12-0.196923 0.157538-0.275692 0.433231-0.512 0.669538-0.196923 0.118154-0.393846 0.196923-0.551384 0.354462l-150.843077 156.593231a36.430769 36.430769 0 0 0 0.945231 51.633231 36.391385 36.391385 0 0 0 51.63323-0.945231l124.455385-129.102769 273.092923 285.61723a36.548923 36.548923 0 0 0 51.712 1.181539z"  horiz-adv-x="1024" />

    
    <glyph glyph-name="weigouxuan" unicode="&#58942;" d="M196.923077 817.230769a118.153846 118.153846 0 0 1-118.153846-118.153846v-630.153846a118.153846 118.153846 0 0 1 118.153846-118.153846h630.153846a118.153846 118.153846 0 0 1 118.153846 118.153846V699.076923a118.153846 118.153846 0 0 1-118.153846 118.153846H196.923077z m0 78.769231h630.153846a196.923077 196.923077 0 0 0 196.923077-196.923077v-630.153846a196.923077 196.923077 0 0 0-196.923077-196.923077H196.923077a196.923077 196.923077 0 0 0-196.923077 196.923077V699.076923a196.923077 196.923077 0 0 0 196.923077 196.923077z"  horiz-adv-x="1024" />

    
    <glyph glyph-name="dizhiguanli" unicode="&#58943;" d="M821.653333 262.186667L576.533333-21.333333a85.333333 85.333333 0 0 0-129.066666-0.064L198.634667 266.048c-1.152 1.322667-2.133333 2.773333-2.88 4.266667A361.088 361.088 0 0 0 149.333333 448c0 200.298667 162.368 362.666667 362.666667 362.666667s362.666667-162.368 362.666667-362.666667c0-63.744-16.490667-125.162667-47.381334-179.370667a21.269333 21.269333 0 0 0-5.632-6.421333zM792.32 293.546667A318.442667 318.442667 0 0 1 832 448c0 176.725333-143.274667 320-320 320-176.725333 0-320-143.274667-320-320 0-55.317333 14.037333-108.522667 40.384-155.733333l247.317333-285.738667a42.666667 42.666667 0 0 1 64.554667 0.021333L792.32 293.546667zM512 298.666667a149.333333 149.333333 0 1 0 0 298.666666 149.333333 149.333333 0 0 0 0-298.666666z m0 42.666666a106.666667 106.666667 0 1 1 0 213.333334 106.666667 106.666667 0 0 1 0-213.333334z"  horiz-adv-x="1024" />

    
    <glyph glyph-name="shouhuodizhiyebianji" unicode="&#58949;" d="M896 399.104a25.6 25.6 0 0 0 51.2 0V128a179.2 179.2 0 0 0-179.2-179.2H256a179.2 179.2 0 0 0-179.2 179.2V640a179.2 179.2 0 0 0 179.2 179.2h313.1392a25.6 25.6 0 0 0 0-51.2H256a128 128 0 0 1-128-128v-512a128 128 0 0 1 128-128h512a128 128 0 0 1 128 128V399.104z m-5.9392 373.5296a25.6 25.6 0 1 0 37.4784-34.8672L547.2 328.9088a25.6 25.6 0 0 0-37.4784 34.8672L890.0608 772.6336z"  horiz-adv-x="1024" />

    
    <glyph glyph-name="weigouxuan1" unicode="&#58954;" d="M256 768a128 128 0 0 1-128-128v-512a128 128 0 0 1 128-128h512a128 128 0 0 1 128 128V640a128 128 0 0 1-128 128H256z m0 51.2h512a179.2 179.2 0 0 0 179.2-179.2v-512a179.2 179.2 0 0 0-179.2-179.2H256a179.2 179.2 0 0 0-179.2 179.2V640a179.2 179.2 0 0 0 179.2 179.2z"  horiz-adv-x="1024" />

    
    <glyph glyph-name="yigouxuan1" unicode="&#58955;" d="M796.912941 598.437647L407.491765 203.294118l-156.611765 172.272941a30.177882 30.177882 0 0 1-44.574118-40.658824L361.411765 161.430588a60.235294 60.235294 0 0 1 85.232941-3.915294l2.409412 2.409412 390.927058 396.348235a30.117647 30.117647 0 1 1-43.068235 42.164706zM813.176471 896H210.823529a210.823529 210.823529 0 0 1-210.823529-210.823529v-602.352942a210.823529 210.823529 0 0 1 210.823529-210.823529h602.352942a210.823529 210.823529 0 0 1 210.823529 210.823529V685.176471a210.823529 210.823529 0 0 1-210.823529 210.823529z m150.588235-813.176471a150.588235 150.588235 0 0 0-150.588235-150.588235H210.823529a150.588235 150.588235 0 0 0-150.588235 150.588235V685.176471a150.588235 150.588235 0 0 0 150.588235 150.588235h602.352942a150.588235 150.588235 0 0 0 150.588235-150.588235z"  horiz-adv-x="1024" />

    
    <glyph glyph-name="guanbi1" unicode="&#58957;" d="M511.232 457.1648L112.9984 855.3984A51.2 51.2 0 0 1 40.6016 783.0016L438.784 384.768 40.6016-13.4656a51.2 51.2 0 1 1 72.3968-72.448l398.2336 398.2848 398.2336-398.2848a51.2 51.2 0 1 1 72.448 72.448l-398.2848 398.2336 398.2848 398.2336A51.2 51.2 0 0 1 909.4656 855.3984L511.232 457.216z"  horiz-adv-x="1024" />

    
    <glyph glyph-name="jiajianzujianjiahao" unicode="&#58958;" d="M426.666667 469.333333H85.546667A85.418667 85.418667 0 0 1 0 384c0-47.445333 38.314667-85.333333 85.546667-85.333333H426.666667v-341.12c0-47.274667 38.186667-85.546667 85.333333-85.546667 47.445333 0 85.333333 38.314667 85.333333 85.546667V298.666667h341.12A85.418667 85.418667 0 0 1 1024 384c0 47.445333-38.314667 85.333333-85.546667 85.333333H597.333333V810.453333A85.418667 85.418667 0 0 1 512 896c-47.445333 0-85.333333-38.314667-85.333333-85.546667V469.333333z"  horiz-adv-x="1024" />

    
    <glyph glyph-name="changjingguanli" unicode="&#60257;" d="M592 560h-416c-52.928 0-96-43.072-96-96v-416c0-52.928 43.072-96 96-96h416c52.928 0 96 43.072 96 96v416c0 52.928-43.072 96-96 96z m32-512a32 32 0 0 0-32-32h-416c-17.632 0-32 14.336-32 32v416c0 17.632 14.368 32 32 32h416c17.664 0 32-14.368 32-32v-416zM720 688h-416a32 32 0 0 1 0-64h416c17.664 0 32-14.368 32-32v-416a32 32 0 1 1 64 0v416c0 52.928-43.072 96-96 96zM528 144h-288a32 32 0 1 1 0-64h288a32 32 0 1 1 0 64zM848 816h-416a32 32 0 0 1 0-64h416c17.664 0 32-14.368 32-32v-416a32 32 0 1 1 64 0v416c0 52.928-43.072 96-96 96z"  horiz-adv-x="1024" />

    
    <glyph glyph-name="fenxiangfangshi" unicode="&#60258;" d="M800 192c-39.584 0-74.528-18.368-98.016-46.592l-273.472 154.72A191.04 191.04 0 0 1 448 384c0 28.928-6.592 56.256-18.048 80.864l204.64 131.84A127.04 127.04 0 0 1 704 576a128 128 0 1 1-128 128c0-21.504 5.792-41.44 15.168-59.232l-197.408-127.168A191.36 191.36 0 0 1 256 576a192 192 0 1 1 135.2-328.288l283.168-160.192A129.376 129.376 0 0 1 672 64a128 128 0 1 1 128 128zM704 768a64 64 0 1 0-0.032-128.032A64 64 0 0 0 704 768z m96-768a64 64 0 1 0 0.032 128.032A64 64 0 0 0 800 0z"  horiz-adv-x="1024" />

    
    <glyph glyph-name="bianji" unicode="&#60259;" d="M880.288 663.52L560.192 850.88a95.648 95.648 0 0 1-96.64 0L143.68 663.52A96.64 96.64 0 0 1 96 580.096v-397.664c0-34.784 18.624-66.88 48.736-84l320-181.92a95.52 95.52 0 0 1 94.496 0l320 181.92A96.576 96.576 0 0 1 928 182.432V580.096a96.64 96.64 0 0 1-47.712 83.424zM864 182.432c0-11.584-6.208-22.304-16.256-28l-320-181.92a31.776 31.776 0 0 0-31.488 0l-320 181.92A32.192 32.192 0 0 0 160 182.432V580.096c0 11.456 6.048 22.048 15.904 27.808l319.872 187.36a31.84 31.84 0 0 0 32.192 0l320.128-187.392c9.856-5.728 15.904-16.32 15.904-27.776v-397.664zM512 576a192 192 0 1 1 0-384 192 192 0 0 1 0 384z m0-320a128 128 0 1 0 0 256 128 128 0 0 0 0-256z"  horiz-adv-x="1024" />

    
    <glyph glyph-name="ceshishenqing" unicode="&#60260;" d="M607.232 0a32 32 0 1 0 0-64H192a96 96 0 0 0-96 96V736a96 96 0 0 0 96 96h544a96 96 0 0 0 96-96 32 32 0 0 0-64 0 32 32 0 0 1-32 32H192a32 32 0 0 1-32-32v-704a32 32 0 0 1 32-32h415.232zM832 310.24v-146.656c0-42.656-64-42.656-64 0v146.656c0 42.688 64 42.688 64 0zM288 576a32 32 0 1 0 0 64h224a32 32 0 0 0 0-64H288zM288 416a32 32 0 0 0 0 64h128a32 32 0 0 0 0-64H288zM639.424-30.592a32 32 0 1 0-64 0L576 96a96 96 0 0 0 96 96l127.744-1.152a32 32 0 1 0 0-64L672 128a32 32 0 0 1-32-32l-0.576-126.592zM637.92-51.648a32 32 0 1 0-44.32 46.208l180.384 172.992a32 32 0 1 0 44.288-46.176l-180.352-173.024zM880.896 561.472a31.424 31.424 0 0 1 3.328 44.416l-0.416 0.512a32 32 0 0 1-44.896 3.36L408.32 243.712l-15.2-51.84 58.336 4.544 429.44 365.056z m51.616 86.4a95.36 95.36 0 0 0-9.408-134.496l-438.08-372.448a32 32 0 0 0-18.24-7.52l-114.944-8.896a32 32 0 0 0-33.184 40.928l30.944 105.472a32 32 0 0 0 9.984 15.36L797.408 658.496a96 96 0 0 0 134.688-10.112l0.416-0.512z"  horiz-adv-x="1024" />

    
    <glyph glyph-name="renjijiaohu" unicode="&#60262;" d="M948.448 360.512c-25.856 119.584-111.008 238.24-182.272 217.632-25.504-7.36-45.088-20.832-57.728-39.424-22.976 10.656-46.496 11.68-69.504 1.536a86.112 86.112 0 0 1-40.256-35.52c-26.496 13.408-56.96 13.12-88.896-1.856a107.2 107.2 0 0 1-19.232-11.456c-77.824 109.984-141.408 159.616-198.72 146.624-81.152-18.368-81.152-89.152-19.584-181.856l118.208-182.784c-64.864 12.192-111.776 1.728-139.584-35.424-45.472-60.8 2.656-116.96 114.4-167.232l215.968-96.064a32 32 0 0 1 26.016 58.464l-215.84 96c-43.552 19.584-72.32 37.952-85.568 53.44-7.68 8.96-7.904 11.456-3.712 17.056 15.808 21.12 64.928 21.12 150.56-10.816 28.864-10.784 54.784 21.472 38.048 47.36l-164.96 255.072C284.8 552.992 284.8 570.816 305.984 575.616c28.064 6.336 87.104-49.408 165.536-170.56 5.888-13.888 15.072-28.352 27.392-42.976 25.472-30.272 72.416 3.552 51.776 37.312a2035.2 2035.2 0 0 1-23.04 36.832c0.544 3.744 3.872 6.144 9.312 8.704 22.464 10.528 36.48 6.528 52.192-15.68 17.472-24.64 56.224-13.6 58.048 16.576 1.28 21.184 7.136 31.296 17.536 35.872 8.96 3.936 20.096 0.544 37.472-16a32 32 0 0 1 53.952 20.32c1.472 16.544 9.024 25.248 27.808 30.688 19.712 5.696 83.136-82.688 101.952-169.696 13.536-62.592 13.536-136.992-0.32-223.136a32 32 0 1 1 63.2-10.144c15.008 93.504 15.008 175.776-0.352 246.784zM300.8 0H164.256C144.352 0 128 16.608 128 37.344V730.656C128 751.392 144.352 768 164.256 768h375.456C559.648 768 576 751.392 576 730.656a32 32 0 0 1 64 0C640 786.528 595.232 832 539.744 832H164.256C108.768 832 64 786.528 64 730.656v-693.344C64-18.528 108.768-64 164.256-64H300.8a32 32 0 0 1 0 64z"  horiz-adv-x="1024" />

    
    <glyph glyph-name="shiyongwendang" unicode="&#60263;" d="M288 576h448a32 32 0 0 1 0 64H288a32 32 0 0 1 0-64zM288 352h448a32 32 0 0 1 0 64H288a32 32 0 0 1 0-64zM544 192H288a32 32 0 0 1 0-64h256a32 32 0 0 1 0 64zM896 763.072C896 818.72 851.552 864 796.928 864H227.04C172.448 864 128 818.72 128 763.072v-758.144C128-50.72 172.448-96 227.04-96h435.008c1.568 0 2.912 0.672 4.416 0.896 8.96-1.6 18.464 0.256 25.984 6.528l192 160a31.424 31.424 0 0 1 10.816 27.2c0.16 1.184 0.736 2.208 0.736 3.424V763.072zM192 4.928V763.072C192 783.424 207.712 800 227.04 800h569.888C816.288 800 832 783.424 832 763.072V160h-96a96 96 0 0 1-96-96v-96H227.04C207.712-32 192-15.424 192 4.928zM814.016 96L704 4.32V64a32 32 0 0 0 32 32h78.016z"  horiz-adv-x="1024" />

    
    <glyph glyph-name="shujukanban" unicode="&#60264;" d="M979.2 737.152a32 32 0 0 1-38.4 23.936l-166.848-38.656a32 32 0 0 1-15.808-53.408L794.56 631.36l-194.56-173.568-101.024 95.68a32 32 0 0 1-45.152-1.152l-216.736-227.264A64 64 0 1 1 288 262.4c0 6.944-1.376 13.472-3.424 19.712l193.536 202.944 99.232-93.952a32 32 0 0 1 43.296-0.64L839.04 585.28l41.504-42.976a32 32 0 0 1 53.92 13.92l44.448 165.408a31.84 31.84 0 0 1 0.288 15.52zM928 445.536a32 32 0 0 1-32-32V160a32 32 0 0 0-32-32H160a32 32 0 0 0-32 32V736a32 32 0 0 0 32 32h530.656a32 32 0 0 1 0 64H160a96 96 0 0 1-96-96v-576a96 96 0 0 1 96-96h704a96 96 0 0 1 96 96v253.536a32 32 0 0 1-32 32zM912 0h-800a32 32 0 0 1 0-64h800a32 32 0 0 1 0 64z"  horiz-adv-x="1024" />

    
    <glyph glyph-name="yingyongguanli" unicode="&#60265;" d="M384 800H192a96 96 0 0 1-96-96v-192a96 96 0 0 1 96-96h192a96 96 0 0 1 96 96V704a96 96 0 0 1-96 96z m32-288a32 32 0 0 0-32-32H192a32 32 0 0 0-32 32V704a32 32 0 0 0 32 32h192a32 32 0 0 0 32-32v-192zM384 352H192a96 96 0 0 1-96-96v-192a96 96 0 0 1 96-96h192a96 96 0 0 1 96 96v192a96 96 0 0 1-96 96z m32-288a32 32 0 0 0-32-32H192a32 32 0 0 0-32 32v192a32 32 0 0 0 32 32h192a32 32 0 0 0 32-32v-192zM832 352h-192a96 96 0 0 1-96-96v-192a96 96 0 0 1 96-96h192a96 96 0 0 1 96 96v192a96 96 0 0 1-96 96z m32-288a32 32 0 0 0-32-32h-192a32 32 0 0 0-32 32v192a32 32 0 0 0 32 32h192a32 32 0 0 0 32-32v-192zM736 608m-192 0a192 192 0 1 1 384 0 192 192 0 1 1-384 0Z"  horiz-adv-x="1024" />

    
    <glyph glyph-name="guanbi2" unicode="&#60266;" d="M548.992 392.256L885.44 728.672a31.968 31.968 0 1 1-45.248 45.248L503.744 437.504 167.328 773.92a31.968 31.968 0 1 1-45.248-45.248l336.416-336.416L122.08 55.84a31.968 31.968 0 1 1 45.248-45.248l336.416 336.416L840.16 10.56a31.968 31.968 0 1 1 45.248 45.248L548.992 392.256z"  horiz-adv-x="1024" />

    
    <glyph glyph-name="zidingyi" unicode="&#60267;" d="M727.008 408.768l194.016 184.32a99.2 99.2 0 0 1 0 140.288l-48.416 48.416a99.2 99.2 0 0 1-138.464 1.76L544.64 603.616l-184.064 196.64-1.504 1.568a64.832 64.832 0 0 1-91.712 0.384L129.184 664.032a64.8 64.8 0 0 1-1.12-90.144l181.344-193.728-171.456-162.88a99.264 99.264 0 0 1-28.256-49.28l-28.992-123.744a65.632 65.632 0 0 1 82.4-77.92l119.296 35.136a99.744 99.744 0 0 1 40.32 23.232l169.056 160.608 203.616-217.536 1.504-1.568a64.832 64.832 0 0 1 91.712-0.384l138.176 138.176a64.8 64.8 0 0 1 1.12 90.144l-200.896 214.624zM319.424 109.824l-90.112 90.112a31.488 31.488 0 0 1-9.792 6.496L667.104 631.648l94.272-94.272c1.408-1.408 3.168-2.08 4.768-3.168L319.424 109.824zM778.208 737.216a35.2 35.2 0 0 0 49.12-0.64l48.416-48.416c13.76-13.76 13.76-36.032-0.64-50.4l-64.448-61.216c-1.28 2.08-2.24 4.288-4.064 6.112l-93.12 93.12 64.736 61.44zM288.512 496.096c8 0.128 16 3.168 22.112 9.28l48 48a31.968 31.968 0 1 1-45.248 45.248l-48-48a31.68 31.68 0 0 1-8.928-20.256L174.816 617.6c-0.512 0.512-0.512 1.024-0.352 1.152L312.64 756.96c0.128 0.128 0.672 0.128 1.248-0.416l184.384-196.992-142.432-135.328-67.328 71.872zM145.024 27.712a1.6 1.6 0 0 0-2.016 1.92l28.992 123.744c0.992 4.16 2.944 7.968 5.312 11.488a31.808 31.808 0 0 1 6.752-10.144l88.288-88.288a35.072 35.072 0 0 0-8-3.552l-119.328-35.168z m598.336-16.672c-0.128-0.128-0.672-0.128-1.248 0.416l-125.6 134.176a31.232 31.232 0 0 1 14.08 7.712l48 48a31.968 31.968 0 1 1-45.248 45.248l-48-48a31.68 31.68 0 0 1-7.296-11.904l-39.904 42.656 142.432 135.328 200.576-214.304c0.48-0.512 0.48-1.024 0.352-1.152l-138.144-138.176z"  horiz-adv-x="1024" />

    
    <glyph glyph-name="icon_fabu" unicode="&#60296;" d="M166.464 447.296l212.64-128.736a32 32 0 1 0-33.152-54.72l-266.528 161.312a32 32 0 0 0 4.256 56.928l832 347.456a32 32 0 0 0 43.744-35.52l-145.76-768a32 32 0 0 0-48.576-21.056l-270.208 171.328a32 32 0 0 0 34.24 54.08l230.464-146.112L885.44 747.52 166.464 447.296zM416 263.904V0a32 32 0 0 0-64 0v278.624a32 32 0 0 0 11.2 24.32L752.192 636a32 32 0 0 0 41.6-48.64L416 263.936z"  horiz-adv-x="1024" />

    
    <glyph glyph-name="icon_tianjia" unicode="&#60297;" d="M512-96C246.912-96 32 118.912 32 384 32 649.088 246.912 864 512 864c265.088 0 480-214.912 480-480 0-265.088-214.912-480-480-480z m0 64c229.76 0 416 186.24 416 416S741.76 800 512 800 96 613.76 96 384s186.24-416 416-416zM256 352a32 32 0 0 0 0 64h512a32 32 0 0 0 0-64H256zM480 640a32 32 0 0 0 64 0v-512a32 32 0 0 0-64 0V640z"  horiz-adv-x="1024" />

    
    <glyph glyph-name="icon_wangye" unicode="&#60300;" d="M896 832H128a64 64 0 0 1-64-64v-768a64 64 0 0 1 64-64h768a64 64 0 0 1 64 64V768a64 64 0 0 1-64 64zM128 768h768v-192H128V768z m768-768H128V512h768v-512zM256 320h512a32 32 0 0 1 0 64H256a32 32 0 0 1 0-64zM256 160h512a32 32 0 0 1 0 64H256a32 32 0 0 1 0-64zM768 704h-64a32 32 0 0 1 0-64h64a32 32 0 0 1 0 64z"  horiz-adv-x="1024" />

    
    <glyph glyph-name="icon_shezhi" unicode="&#60301;" d="M482.88 784l-17.28-90.688-20.64-4.512a309.696 309.696 0 0 1-99.776-41.088l-18.688-11.84-73.28 55.04-44.64-44.64 51.904-76.416-11.392-17.76a310.016 310.016 0 0 1-41.568-99.584l-4.8-21.6-90.72-12.896v-63.104l90.688-17.312 4.512-20.64a309.984 309.984 0 0 1 41.088-99.776l11.84-18.688-55.04-73.28 44.64-44.64 76.416 51.904 17.76-11.392a310.016 310.016 0 0 1 99.584-41.568l21.6-4.8 12.896-90.72h63.104l17.312 90.688 20.64 4.512a309.984 309.984 0 0 1 99.776 41.088l18.688 11.84 73.28-55.04 44.64 44.64-51.904 76.416 11.392 17.76a310.016 310.016 0 0 1 41.568 99.584l4.8 21.6 90.72 12.896V413.12l-90.688 17.312-4.512 20.64a309.984 309.984 0 0 1-41.088 99.776l-11.84 18.688 55.04 73.28-44.64 44.64-76.416-51.904-17.76 11.392a310.144 310.144 0 0 1-99.584 41.568l-21.6 4.8-12.896 90.72H482.88zM410.56 746.144l19.424 101.856h171.584l14.624-102.624c28-8.064 54.848-19.328 80.128-33.568l85.792 58.304 121.344-121.344-62.272-82.88c14.08-25.408 25.152-52.352 32.96-80.416l101.888-19.424v-171.584l-102.624-14.624a373.92 373.92 0 0 0-33.568-80.128l58.304-85.792-121.344-121.344-82.88 62.272c-25.408-14.08-52.352-25.152-80.416-32.96l-19.424-101.888h-171.584l-14.624 102.624a373.92 373.92 0 0 0-80.128 33.568L241.92-2.112l-121.344 121.344 62.272 82.88a373.824 373.824 0 0 0-32.96 80.416L48 301.952v171.584l102.624 14.624c8.064 27.968 19.328 54.848 33.568 80.128L125.888 654.08l121.344 121.344 82.88-62.272a373.856 373.856 0 0 0 80.416 32.96zM512 192a192 192 0 1 0 0 384 192 192 0 0 0 0-384z m0 64a128 128 0 1 1 0 256 128 128 0 0 1 0-256z"  horiz-adv-x="1024" />

    
    <glyph glyph-name="icon_baocun" unicode="&#60302;" d="M941.248 544L672 813.248A64 64 0 0 1 626.752 832H128a64 64 0 0 1-64-64v-768a64 64 0 0 1 64-64h768a64 64 0 0 1 64 64V498.752A64 64 0 0 1 941.248 544zM256 768h48v-160H256V768z m112 0H512v-160h-144V768zM256 0v192h512v-192H256z m640 0h-64v224a32 32 0 0 1-32 32H224a32 32 0 0 1-32-32v-224H128V768h64v-192a32 32 0 0 1 32-32h320a32 32 0 0 1 32 32V768h50.752L896 498.752V0z"  horiz-adv-x="1024" />

    
    <glyph glyph-name="icon_yingyongguanli" unicode="&#60303;" d="M192 736a32 32 0 0 1-32-32v-192a32 32 0 0 1 32-32h192a32 32 0 0 1 32 32V704a32 32 0 0 1-32 32H192z m0 64h192a96 96 0 0 0 96-96v-192a96 96 0 0 0-96-96H192a96 96 0 0 0-96 96V704a96 96 0 0 0 96 96zM192 288a32 32 0 0 1-32-32v-192a32 32 0 0 1 32-32h192a32 32 0 0 1 32 32v192a32 32 0 0 1-32 32H192z m0 64h192a96 96 0 0 0 96-96v-192a96 96 0 0 0-96-96H192a96 96 0 0 0-96 96v192a96 96 0 0 0 96 96zM640 288a32 32 0 0 1-32-32v-192a32 32 0 0 1 32-32h192a32 32 0 0 1 32 32v192a32 32 0 0 1-32 32h-192z m0 64h192a96 96 0 0 0 96-96v-192a96 96 0 0 0-96-96h-192a96 96 0 0 0-96 96v192a96 96 0 0 0 96 96zM602.272 629.728a32 32 0 0 1 0-45.28l112-112a32 32 0 0 1 45.28 0l112 112a32 32 0 0 1 0 45.28l-112 112a32 32 0 0 1-45.28 0l-112-112z m-45.248 45.248l112 112a96 96 0 0 0 135.776 0l112-112a96 96 0 0 0 0-135.776l-112-112a96 96 0 0 0-135.776 0l-112 112a96 96 0 0 0 0 135.776z"  horiz-adv-x="1024" />

    
    <glyph glyph-name="icon_shiyongwendang" unicode="&#60305;" d="M288 576a32 32 0 1 0 0 64h448a32 32 0 0 0 0-64H288zM288 352a32 32 0 0 0 0 64h448a32 32 0 0 0 0-64H288zM288 128a32 32 0 0 0 0 64h128a32 32 0 0 0 0-64H288zM807.968 93.76a32 32 0 0 0 41.984-48.32l-153.856-133.6a32 32 0 0 0-20.992-7.84H195.04C140.16-96 96-50.624 96 4.928V763.072C96 818.624 140.16 864 195.04 864h633.92C883.84 864 928 818.624 928 763.072v-564.32a32 32 0 1 0-64 0V763.072C864 783.68 848.096 800 828.96 800H195.04C175.904 800 160 783.68 160 763.072v-758.144C160-15.68 175.904-32 195.04-32h468.096l144.832 125.76zM704-63.136a32 32 0 1 0-64 0v186.24C640 178.592 684.16 224 739.04 224h157.632a32 32 0 0 0 0-64h-157.632c-19.136 0-35.04-16.32-35.04-36.928v-186.24z"  horiz-adv-x="1024" />

    
    <glyph glyph-name="tubiao-zhuzhuangtu" unicode="&#60310;" d="M896 0H96a32 32 0 0 0-32 32V672a32 32 0 0 0 64 0v-608h768a32 32 0 1 0 0-64zM512 143.84a32 32 0 0 0-32 32V545.376a32 32 0 0 0 64 0v-369.536a32 32 0 0 0-32-32zM320 143.424a32 32 0 0 0-32 32V384a32 32 0 0 0 64 0v-208.576a32 32 0 0 0-32-32zM896 143.328a32 32 0 0 0-32 32V732.512a32 32 0 1 0 64 0v-557.184a32 32 0 0 0-32-32zM704 143.264a32 32 0 0 0-32 32V672a32 32 0 1 0 64 0v-496.736a32 32 0 0 0-32-32z"  horiz-adv-x="1024" />

    
    <glyph glyph-name="xingzhuang-tupian" unicode="&#60312;" d="M928 0H96a32 32 0 0 0-32 32V736a32 32 0 0 0 32 32h832a32 32 0 0 0 32-32v-116.864a32 32 0 1 0-64 0V704H128v-640h768V427.456l-206.336-244.736a31.968 31.968 0 0 0-44.896-4l-196.064 162.752-194.656-180.224a31.936 31.936 0 1 0-43.456 46.944l215.232 199.296a32.032 32.032 0 0 0 42.176 1.152l193.216-160.384 242.336 287.456a32.128 32.128 0 0 0 35.424 9.44c12.608-4.608 21.024-16.64 21.024-30.08V32a32 32 0 0 0-32-32zM304 416C242.24 416 192 466.24 192 528S242.24 640 304 640 416 589.76 416 528 365.76 416 304 416z m0 160c-26.464 0-48-21.536-48-48S277.536 480 304 480s48 21.536 48 48-21.536 48-48 48z"  horiz-adv-x="1024" />

    
    <glyph glyph-name="kongxinduigou" unicode="&#60389;" d="M512-96C246.912-96 32 118.912 32 384 32 649.088 246.912 864 512 864c265.088 0 480-214.912 480-480 0-265.088-214.912-480-480-480z m0 64c229.76 0 416 186.24 416 416S741.76 800 512 800 96 613.76 96 384s186.24-416 416-416zM741.216 552a32 32 0 0 0 46.816-43.616l-315.296-338.208a32 32 0 0 0-43.968-2.688l-193.344 162.368a32 32 0 1 0 41.152 48.992l170.08-142.816 294.56 316z"  horiz-adv-x="1024" />

    
    <glyph glyph-name="duigou1" unicode="&#60390;" d="M892.064 634.112a31.936 31.936 0 0 1-45.216-1.472L421.664 178.752l-220.448 185.216a32 32 0 1 1-41.152-48.992l243.648-204.704a31.872 31.872 0 0 1 20.576-7.488 31.808 31.808 0 0 1 23.36 10.112L893.536 588.864a32 32 0 0 1-1.472 45.248z"  horiz-adv-x="1024" />

    
    <glyph glyph-name="xiayibu" unicode="&#60399;" d="M512-96C246.912-96 32 118.912 32 384 32 649.088 246.912 864 512 864c265.088 0 480-214.912 480-480 0-265.088-214.912-480-480-480z m0 64c229.76 0 416 186.24 416 416S741.76 800 512 800 96 613.76 96 384s186.24-416 416-416zM688 416a32 32 0 0 0 0-64h-416a32 32 0 0 0 0 64h416zM707.072 384l-151.36 170.784a32 32 0 1 0 47.872 42.432l170.208-192a32 32 0 0 0 0-42.432l-170.24-192a32 32 0 1 0-47.872 42.432L707.072 384z"  horiz-adv-x="1024" />

    
    <glyph glyph-name="shangyibu" unicode="&#60400;" d="M512-96C246.912-96 32 118.912 32 384 32 649.088 246.912 864 512 864c265.088 0 480-214.912 480-480 0-265.088-214.912-480-480-480z m0 64c229.76 0 416 186.24 416 416S741.76 800 512 800 96 613.76 96 384s186.24-416 416-416zM336 416a32 32 0 0 1 0-64h416a32 32 0 0 1 0 64h-416zM316.928 384l151.36 170.784a32 32 0 1 1-47.872 42.432l-170.208-192a32 32 0 0 1 0-42.432l170.24-192a32 32 0 1 1 47.872 42.432L316.928 384z"  horiz-adv-x="1024" />

    
    <glyph glyph-name="kongjianweixuan" unicode="&#60401;" d="M896 832H128c-35.296 0-64-28.704-64-64v-768c0-35.296 28.704-64 64-64h768c35.296 0 64 28.704 64 64V768c0 35.296-28.704 64-64 64zM128 0V768h768l0.064-768H128z"  horiz-adv-x="1024" />

    
    <glyph glyph-name="kongjianyixuan" unicode="&#60402;" d="M896 832H128c-35.296 0-64-28.704-64-64v-768c0-35.296 28.704-64 64-64h768c35.296 0 64 28.704 64 64V768c0 35.296-28.704 64-64 64zM128 0V768h768l0.064-768H128zM744.64 587.968l-310.368-331.296-157.696 132.48a32 32 0 0 1-41.184-49.024l180.896-152a32 32 0 0 1 43.936 2.624L791.36 544.224a32 32 0 1 1-46.72 43.744z"  horiz-adv-x="1024" />

    
    <glyph glyph-name="shuaxin" unicode="&#60424;" d="M960 480V704l-73.056-73.056a447.712 447.712 0 0 1-373.6 201.088C265.92 832.032 65.312 631.456 65.312 384S265.92-64.032 513.344-64.032a448.064 448.064 0 0 1 415.232 279.488 38.368 38.368 0 1 1-71.136 28.896 371.36 371.36 0 0 0-344.096-231.584C308.32 12.768 142.112 178.976 142.112 384S308.32 755.232 513.344 755.232c132.448 0 251.936-70.08 318.016-179.84L736 480h224z"  horiz-adv-x="1024" />

    
    <glyph glyph-name="xiangxiazhanhang" unicode="&#60427;" d="M493.504 337.856a31.904 31.904 0 0 1 45.28 0l308.352 308.352a31.968 31.968 0 1 1-45.248 45.248l-285.728-285.728-294.176 294.144a31.968 31.968 0 1 1-45.248-45.248l316.768-316.768zM801.888 435.424l-285.728-285.728-294.144 294.144a31.968 31.968 0 1 1-45.248-45.248l316.768-316.768a31.904 31.904 0 0 1 45.28 0l308.352 308.352a32 32 0 1 1-45.28 45.248z"  horiz-adv-x="1024" />

    
    <glyph glyph-name="xiangshangzhanhang" unicode="&#60428;" d="M199.36 323.232a31.904 31.904 0 0 1 22.624 9.376l294.144 294.144 285.728-285.728a31.968 31.968 0 1 1 45.248 45.248l-308.352 308.352a32 32 0 0 1-45.28 0l-316.768-316.768a31.968 31.968 0 0 1 22.656-54.624zM538.784 438.624a32 32 0 0 1-45.28 0l-316.768-316.768a31.968 31.968 0 1 1 45.248-45.248l294.144 294.144 285.728-285.728a31.968 31.968 0 1 1 45.248 45.248l-308.32 308.352z"  horiz-adv-x="1024" />

    
    <glyph glyph-name="suoxiao" unicode="&#60435;" d="M919.264-9.984l-138.912 138.912C851.808 203.68 896 304.672 896 416c0 229.376-186.624 416-416 416S64 645.376 64 416s186.624-416 416-416c95.008 0 182.432 32.384 252.544 86.208l141.44-141.44a31.904 31.904 0 0 1 45.248 0 32 32 0 0 1 0.032 45.248zM128 416C128 610.08 285.92 768 480 768s352-157.92 352-352-157.92-352-352-352S128 221.92 128 416zM625.792 448H336a32 32 0 0 1 0-64h289.792a32 32 0 1 1 0 64z"  horiz-adv-x="1024" />

    
    <glyph glyph-name="fangda" unicode="&#60436;" d="M919.264-9.984l-138.912 138.912C851.808 203.68 896 304.672 896 416c0 229.376-186.624 416-416 416S64 645.376 64 416s186.624-416 416-416c95.008 0 182.432 32.384 252.544 86.208l141.44-141.44a31.904 31.904 0 0 1 45.248 0 32 32 0 0 1 0.032 45.248zM128 416C128 610.08 285.92 768 480 768s352-157.92 352-352-157.92-352-352-352S128 221.92 128 416zM625.792 448H512v112a32 32 0 0 1-64 0V448h-112a32 32 0 0 1 0-64H448v-112a32 32 0 1 1 64 0V384h113.792a32 32 0 1 1 0 64z"  horiz-adv-x="1024" />

    
    <glyph glyph-name="biaodanzujian-biaoge" unicode="&#60437;" d="M960 304.576V527.04c0 0.288 0.16 0.512 0.16 0.768S960 528.32 960 528.576V704a32 32 0 0 1-32 32H96a32 32 0 0 1-32-32v-175.424c0-0.288-0.16-0.512-0.16-0.768s0.16-0.48 0.16-0.768v-222.464c0-0.288-0.16-0.512-0.16-0.768s0.16-0.48 0.16-0.768V32a32 32 0 0 1 32-32h832a32 32 0 0 1 32 32v271.04c0 0.288 0.16 0.512 0.16 0.768S960 304.32 960 304.576z m-560 31.232v160H608v-160h-208z m208-64V64h-208v207.808H608z m-480 224h208v-160H128v160z m544 0h224v-160h-224v160zM896 672v-112.192H128V672h768zM128 271.808h208V64H128v207.808zM672 64v207.808h224V64h-224z"  horiz-adv-x="1024" />

    
    <glyph glyph-name="daohangdizhi" unicode="&#58974;" d="M511.449009 682.141538a179.278769 179.278769 0 1 0 0-358.557538 179.278769 179.278769 0 0 0 0 358.557538z m393.294769-179.357538A393.294769 393.294769 0 1 1 182.036086 287.901538l294.203077-392.270769a39.384615 39.384615 0 0 1 70.498462 0l294.754461 392.270769c39.699692 61.912615 63.251692 135.483077 63.251692 214.882462z"  horiz-adv-x="1024" />

    
    <glyph glyph-name="fenzuguanli" unicode="&#60451;" d="M863.008 512C916.576 512 960 554.976 960 608V736c0 53.024-43.424 96-96.992 96H160.992C107.424 832 64 789.024 64 736v-128c0-53.024 43.424-96 96.992-96H320v-128a32 32 0 0 1 32-32h288v-96H160.992C107.424 256 64 213.024 64 160v-128c0-53.024 43.424-96 96.992-96h702.016C916.576-64 960-21.024 960 32v128c0 53.024-43.424 96-96.992 96H704v128a32 32 0 0 1-32 32h-288v96h479.008z m0-320c17.856 0 32.32-14.336 32.32-32v-128c0-17.664-14.464-32-32.32-32H160.992c-17.856 0-32.32 14.336-32.32 32v128c0 17.664 14.464 32 32.32 32h702.016zM128.672 608V736c0 17.664 14.464 32 32.32 32h702.016c17.856 0 32.32-14.336 32.32-32v-128c0-17.664-14.464-32-32.32-32H160.992c-17.856 0-32.32 14.336-32.32 32zM320 64h384a32 32 0 0 1 0 64H320a32 32 0 0 1 0-64zM736 672a32 32 0 0 1-32 32H320a32 32 0 0 1 0-64h384a32 32 0 0 1 32 32z"  horiz-adv-x="1024" />

    
    <glyph glyph-name="APPkaifa" unicode="&#60452;" d="M512 64m-64 0a64 64 0 1 1 128 0 64 64 0 1 1-128 0ZM790.4 864H233.6C182.72 864 144 817.664 144 763.072v-758.144C144-49.664 182.72-96 233.6-96h556.8c50.88 0 89.6 46.336 89.6 100.928V763.072C880 817.664 841.28 864 790.4 864zM233.6 800h556.8c12.736 0 25.6-15.392 25.6-36.928V736h-608v27.072C208 784.608 220.864 800 233.6 800z m556.8-832H233.6c-12.736 0-25.6 15.392-25.6 36.928V672h608v-667.072c0-21.536-12.864-36.928-25.6-36.928zM704 336H320a32 32 0 1 1 0-64h384a32 32 0 1 1 0 64zM320 464h256.576a32 32 0 1 1 0 64H320a32 32 0 0 1 0-64z"  horiz-adv-x="1024" />

    
    <glyph glyph-name="kefu1" unicode="&#60462;" d="M927.616 430.4C923.328 659.296 745.888 844.192 528 844.192h-32c-217.888 0-395.328-184.896-399.616-413.76C58.112 408.256 32 367.328 32 320v-64c0-70.592 57.408-128 128-128s128 57.408 128 128v64a128.064 128.064 0 0 1-126.784 127.872C173.728 633.312 318.912 780.192 496 780.192h32c177.12 0 322.272-146.88 334.784-332.32A128.064 128.064 0 0 1 736 320v-64c0-57.792 38.72-106.176 91.392-122.016a337.504 337.504 0 0 0-191.936-124.48A79.712 79.712 0 0 1 560 64a80 80 0 1 1 0-160 79.68 79.68 0 0 1 67.872 38.112 402.432 402.432 0 0 1 278.24 193.6C955.968 153.184 992 200.224 992 256v64c0 47.328-26.112 88.256-64.384 110.4zM224 320v-64c0-35.296-28.704-64-64-64s-64 28.704-64 64v64c0 35.296 28.704 64 64 64s64-28.704 64-64z m704-64c0-34.304-27.2-62.176-61.12-63.712l-2.496 1.184c-0.224-0.512-0.576-0.928-0.8-1.408A64 64 0 0 0 800 256v64c0 35.296 28.704 64 64 64s64-28.704 64-64v-64z"  horiz-adv-x="1024" />

    
    <glyph glyph-name="ruanjiankaifabao" unicode="&#60463;" d="M256 384l81.6-108.8a32 32 0 0 0-51.2-38.4l-96 128a31.968 31.968 0 0 0 0 38.4l96 128a32 32 0 0 0 51.2-38.4L256 384zM670.4 275.2a32 32 0 0 1 51.2-38.4l96 128a31.968 31.968 0 0 1 0 38.4l-96 128a32 32 0 0 1-51.2-38.4L752 384l-81.6-108.8zM503.232 249.056a32 32 0 1 0-62.464 13.888l64 288a32 32 0 1 0 62.464-13.888l-64-288zM160 752a32 32 0 0 1-32-32V32a32 32 0 0 1 32-32h688a32 32 0 0 1 32 32V720a32 32 0 0 1-32 32H160z m0 64h688a96 96 0 0 0 96-96V32a96 96 0 0 0-96-96H160a96 96 0 0 0-96 96V720a96 96 0 0 0 96 96z"  horiz-adv-x="1024" />

    
    <glyph glyph-name="sousuobianxiao" unicode="&#60466;" d="M480 0C250.624 0 64 186.624 64 416S250.624 832 480 832s416-186.624 416-416-186.624-416-416-416z m0 768C285.92 768 128 610.08 128 416s157.92-352 352-352 352 157.92 352 352S674.08 768 480 768zM640 376H320a32 32 0 0 0 0 64h320a32 32 0 1 0 0-64zM896.64-64.64a31.904 31.904 0 0 0-22.624 9.376l-160.64 160.64a31.968 31.968 0 1 0 45.248 45.248l160.64-160.64a31.968 31.968 0 0 0-22.624-54.624z"  horiz-adv-x="1024" />

    
    <glyph glyph-name="sousuofangda" unicode="&#60467;" d="M640 440h-118.4V576a32 32 0 0 1-64 0v-136H320a32 32 0 0 1 0-64h137.6V256a32 32 0 1 1 64 0v120H640a32 32 0 1 1 0 64zM919.264-9.984l-138.912 138.912C851.808 203.68 896 304.672 896 416c0 229.376-186.624 416-416 416S64 645.376 64 416s186.624-416 416-416c95.008 0 182.432 32.384 252.544 86.208l141.44-141.44a31.904 31.904 0 0 1 45.248 0 32 32 0 0 1 0.032 45.248zM128 416C128 610.08 285.92 768 480 768s352-157.92 352-352-157.92-352-352-352S128 221.92 128 416z"  horiz-adv-x="1024" />

    
    <glyph glyph-name="dingwei" unicode="&#60468;" d="M512 384m-80 0a80 80 0 1 1 160 0 80 80 0 1 1-160 0ZM960 416h-33.632C910.752 619.84 747.84 782.752 544 798.368V832a32 32 0 1 1-64 0v-33.632C276.16 782.752 113.248 619.84 97.632 416H64a32 32 0 0 1 0-64h33.632C113.248 148.16 276.16-14.752 480-30.368V-64a32 32 0 1 1 64 0v33.632C747.84-14.752 910.752 148.16 926.368 352H960a32 32 0 1 1 0 64zM544 33.632V96a32 32 0 1 1-64 0v-62.368C311.424 48.896 176.896 183.424 161.632 352H224a32 32 0 1 1 0 64H161.632C176.896 584.576 311.424 719.104 480 734.368V672a32 32 0 0 1 64 0V734.368c168.576-15.296 303.104-149.792 318.368-318.368H800a32 32 0 1 1 0-64h62.368c-15.264-168.576-149.792-303.104-318.368-318.368z"  horiz-adv-x="1024" />

    
    <glyph glyph-name="xiaoxi1" unicode="&#60475;" d="M864 832H160C107.072 832 64 788.928 64 736v-608c0-52.928 43.072-96 96-96h61.92v-123.232L443.84 32H864c52.928 0 96 43.072 96 96V736c0 52.928-43.072 96-96 96z m32-704a32 32 0 0 0-32-32H443.84c-10.912 0-21.664-2.816-31.072-8.064l-126.88-70.4V32c0 35.296-28.704 64-64 64H160c-17.632 0-32 14.336-32 32V736c0 17.632 14.368 32 32 32h704c17.664 0 32-14.368 32-32v-608zM640 376H256a32 32 0 1 1 0-64h384a32 32 0 1 1 0 64zM768 600H256a32 32 0 0 1 0-64h512a32 32 0 1 1 0 64z"  horiz-adv-x="1024" />

    
    <glyph glyph-name="ditu-dibiao" unicode="&#60479;" d="M528 864C325.056 864 160 699.2 160 496.64c0-75.2 22.656-147.584 65.024-208.48 2.112-3.648 4.256-7.168 6.784-10.592l268.608-353.472c7.296-8.096 17.088-12.576 27.584-12.576 10.368 0 20.224 4.512 28.768 14.08l267.36 352c2.624 3.52 4.896 7.36 6.112 9.6A364.864 364.864 0 0 1 896 496.64C896 699.2 730.912 864 528 864z m0-498.72a131.52 131.52 0 0 0-131.456 131.232 131.488 131.488 0 0 0 262.88 0 131.52 131.52 0 0 0-131.424-131.2z"  horiz-adv-x="1024" />

    
    <glyph glyph-name="liebiao" unicode="&#60523;" d="M64 416h352V768H64v-352z m64 288h224v-224H128V704zM64-32h352V320H64v-352z m64 288h224v-224H128v224zM526.848 672H928a32 32 0 1 1 0 64H526.848a32 32 0 0 1 0-64zM928 288H526.848a32 32 0 1 1 0-64H928a32 32 0 1 1 0 64zM928 512H526.848a32 32 0 0 1 0-64H928a32 32 0 1 1 0 64zM928 64H526.848a32 32 0 1 1 0-64H928a32 32 0 1 1 0 64z"  horiz-adv-x="1024" />

    
    <glyph glyph-name="chengshi" unicode="&#60528;" d="M160 0H96V768a64 64 0 0 0 64 64h384a64 64 0 0 0 64-64v-768h-64V768H160v-768zM864 416h64v-416h-64zM80-64a32 32 0 0 0 0 64H928a32 32 0 0 0 0-64H80zM971.648 413.824a32 32 0 0 0-23.296-59.648L564.16 504.16a32 32 0 0 0 23.264 59.616l384.256-149.952zM704.384 309.984a32 32 0 1 0 0-64h-128.64a32 32 0 0 0 0 64h128.64zM704.384 181.984a32 32 0 1 0 0-64h-128.64a32 32 0 0 0 0 64h128.64zM320 320a32 32 0 0 0-64 0v64a32 32 0 0 0 64 0v-64zM320 544a32 32 0 0 0-64 0V608a32 32 0 0 0 64 0v-64zM448 544a32 32 0 1 0-64 0V608a32 32 0 1 0 64 0v-64zM448 320a32 32 0 0 0-64 0v64a32 32 0 0 0 64 0v-64zM320-32H256v213.984h201.6V-32h-64v149.984H320z"  horiz-adv-x="1024" />

    
    <glyph glyph-name="fuzhi" unicode="&#60538;" d="M720 704h-544A80.096 80.096 0 0 1 96 624v-608C96-28.128000000000043 131.904-64 176-64h544c44.128 0 80 35.872 80 80v608C800 668.096 764.128 704 720 704z m16-688c0-8.8-7.2-16-16-16h-544a16 16 0 0 0-16 16v608a16 16 0 0 0 16 16h544a16 16 0 0 0 16-16v-608zM848 832h-544a32 32 0 0 1 0-64h544a16 16 0 0 0 16-16v-608a32 32 0 1 1 64 0v608C928 796.096 892.128 832 848 832zM608 536H288a32 32 0 0 1 0-64h320a32 32 0 1 1 0 64zM608 376H288a32 32 0 1 1 0-64h320a32 32 0 1 1 0 64zM480 217.34400000000005H288a32 32 0 1 1 0-64h192a32 32 0 1 1 0 64z"  horiz-adv-x="1024" />

    
    <glyph glyph-name="shanchu" unicode="&#60539;" d="M928.16 752H736V832a32 32 0 0 1-32 32H320a32 32 0 0 1-32-32v-80H95.84a32 32 0 0 1 0-64H129.6l77.92-698.656A96 96 0 0 1 302.912-96h418.144a96.032 96.032 0 0 1 95.424 85.344L894.4 688h33.728a32 32 0 0 1 0.032 64zM352 800h320v-48H352V800z m400.896-803.552a32 32 0 0 0-31.808-28.448H302.912a32 32 0 0 0-31.808 28.448L193.984 688h636.032l-77.12-691.552zM608 75.072a32 32 0 0 1 32 32V576.896a32 32 0 0 1-64 0v-469.824a32 32 0 0 1 32-32zM432 75.072a32 32 0 0 1 32 32V576.896a32 32 0 0 1-64 0v-469.824a32 32 0 0 1 32-32z"  horiz-adv-x="1024" />

    
    <glyph glyph-name="bianjisekuai" unicode="&#60540;" d="M775.84 503.232l-155.2 172.352L160.768 252.736l-38.368-187.936 190.56 12.832zM929.952 666.048l-131.2 150.944-0.288 0.32a16 16 0 0 1-22.592 0.96l-131.168-120.576 155.168-172.352 128.832 118.464a15.936 15.936 0 0 1 1.248 22.24zM96 0h832v-64H96z"  horiz-adv-x="1024" />

    
    <glyph glyph-name="iframetianjia" unicode="&#60541;" d="M856.32 467.936a32 32 0 0 1-32-32v-163.328H372.48c-0.896 0-1.664-0.448-2.56-0.512v177.696h244.48a32 32 0 1 1 0 64H130.56c-0.896 0-1.664-0.448-2.56-0.512V664.32h488.16a32 32 0 1 1 0 64H96a32 32 0 0 1-32-32v-701.824a32 32 0 0 1 32-32h760.32a32 32 0 0 1 32 32V435.936a32 32 0 0 1-32 32zM128 450.272c0.896-0.064 1.664-0.512 2.56-0.512h175.36v-423.264H128V450.272z m241.92-423.776v182.624c0.896-0.064 1.664-0.512 2.56-0.512h451.84v-182.08h-454.4zM960 721.344h-61.376V782.72a32 32 0 1 1-64 0v-61.344H752.64a32 32 0 1 1 0-64h81.984v-81.984a32 32 0 1 1 64 0V657.344H960a32 32 0 1 1 0 64z"  horiz-adv-x="1024" />

    
    <glyph glyph-name="tianxie" unicode="&#60552;" d="M928 530.336a32 32 0 0 1-32-32V32a32 32 0 0 0-32-32H160a32 32 0 0 0-32 32V736a32 32 0 0 0 32 32h429.6a32 32 0 0 1 0 64H160a96 96 0 0 1-96-96v-704a96 96 0 0 1 96-96h704a96 96 0 0 1 96 96V498.336a32 32 0 0 1-32 32zM231.616 199.584a38.4 38.4 0 0 1 44.256-53.792l148 38.368L950.496 710.752 814.72 846.528 290.432 322.24l-58.816-122.656z m111.808 85.12L814.72 756l45.248-45.248-468.992-468.992-77.824-20.16 30.272 63.104z"  horiz-adv-x="1024" />

    
    <glyph glyph-name="duigoux" unicode="&#60574;" d="M939.36 677.088a32 32 0 0 0 45.856-44.672l-538.016-552a32 32 0 0 0-43.776-1.92L63.872 369.952a32 32 0 1 0 41.696 48.544l316.768-271.936L939.36 677.12z"  horiz-adv-x="1024" />

    
    <glyph glyph-name="guanbi3" unicode="&#60576;" d="M550.848 393.504l308.64 308.896a31.968 31.968 0 1 1-45.248 45.248l-308.608-308.896-308.64 308.928a31.968 31.968 0 1 1-45.248-45.248l308.64-308.896-308.64-308.896a31.968 31.968 0 1 1 45.248-45.248l308.64 308.896 308.608-308.896a31.968 31.968 0 1 1 45.248 45.248l-308.64 308.864z"  horiz-adv-x="1024" />

    
    <glyph glyph-name="shexiangtou" unicode="&#60581;" d="M907.712 253.408l-2.624 302.592-204.256-145.056 206.88-157.536z m-39.68 354.784a64 64 0 0 0 101.056-51.648l2.624-302.592a64 64 0 0 0-102.752-51.456l-206.912 157.536a64 64 0 0 0 1.728 103.104l204.256 145.056zM144 640a32 32 0 0 1-32-32v-417.376a32 32 0 0 1 32-32h456.32a32 32 0 0 1 32 32V608a32 32 0 0 1-32 32H144z m0 64h456.32a96 96 0 0 0 96-96v-417.376a96 96 0 0 0-96-96H144a96 96 0 0 0-96 96V608a96 96 0 0 0 96 96z"  horiz-adv-x="1024" />

    
    <glyph glyph-name="shengyin_shiti" unicode="&#60582;" d="M260.256 539.424l204.288 163.968a32 32 0 0 0 52.032-24.96v-610.432a32 32 0 0 0-51.968-24.992l-209.92 167.552H96a32 32 0 0 0-32 32v264.864a32 32 0 0 0 32 32h164.256zM670.784 175.872a32 32 0 0 0-44.832 45.664 214.08 214.08 0 0 1 64.32 153.312 213.92 213.92 0 0 1-55.776 144.448 32 32 0 1 0 47.36 43.04 277.92 277.92 0 0 0 72.416-187.488 278.08 278.08 0 0 0-83.488-198.976zM822.912 37.12a32 32 0 1 0-45.888 44.608A419.008 419.008 0 0 1 896 374.848c0 108.704-41.376 210.848-114.432 288.384a32 32 0 0 0 46.592 43.872c84.16-89.28 131.84-207.04 131.84-332.256 0-127.84-49.76-247.904-137.088-337.728z"  horiz-adv-x="1024" />

    
    <glyph glyph-name="shengyinkai" unicode="&#60583;" d="M128 475.424v-200.864h149.12l175.456-140.064V611.712l-169.792-136.288H128z m132.256 64l204.288 163.968a32 32 0 0 0 52.032-24.96v-610.432a32 32 0 0 0-51.968-24.992l-209.92 167.552H96a32 32 0 0 0-32 32v264.864a32 32 0 0 0 32 32h164.256zM670.784 175.872a32 32 0 0 0-44.832 45.664 214.08 214.08 0 0 1 64.32 153.312 213.92 213.92 0 0 1-55.776 144.448 32 32 0 1 0 47.36 43.04 277.92 277.92 0 0 0 72.416-187.488 278.08 278.08 0 0 0-83.488-198.976zM822.912 37.12a32 32 0 1 0-45.888 44.608A419.008 419.008 0 0 1 896 374.848c0 108.704-41.376 210.848-114.432 288.384a32 32 0 0 0 46.592 43.872c84.16-89.28 131.84-207.04 131.84-332.256 0-127.84-49.76-247.904-137.088-337.728z"  horiz-adv-x="1024" />

    
    <glyph glyph-name="shoucang1" unicode="&#60584;" d="M512 175.584l232.096-171.904a19.2 19.2 0 0 1 16.864-2.88c9.536 2.88 14.592 12.224 11.84 20.864l-88.96 281.6 237.344 176.96a16.48 16.48 0 0 1 6.816 13.152c0 9.152-7.904 16.928-18.112 16.96l-292 0.448-88.48 277.12a17.568 17.568 0 0 1-11.776 11.264c-9.856 2.976-20.16-2.304-23.04-11.264l-88.48-277.12-292-0.48a18.624 18.624 0 0 1-14.624-6.944 16.096 16.096 0 0 1 3.328-23.136l237.376-176.96-88.992-281.6a15.904 15.904 0 0 1 2.72-14.688c6.048-7.744 17.856-9.312 25.984-3.296L512 175.584z m-194.016-223.36a83.008 83.008 0 0 0-114.56 15.424 79.904 79.904 0 0 0-13.28 73.28l75.296 238.24-200.864 149.76a80.096 80.096 0 0 0-15.424 113.92 82.624 82.624 0 0 0 64.864 31.456l245.312 0.384 74.304 232.672c13.6 42.56 59.52 66.112 102.56 53.024A81.536 81.536 0 0 0 590.4 807.36l74.304-232.64 245.312-0.416c45.184-0.064 82.08-36.16 82.016-81.024a80.48 80.48 0 0 0-32.576-64.352l-200.864-149.76 75.296-238.24c13.568-42.976-11.072-88.352-54.496-101.408a83.2 83.2 0 0 0-73.344 12.736L512 95.936l-194.016-143.68z"  horiz-adv-x="1024" />

    
    <glyph glyph-name="activity" unicode="&#59102;" d="M800 50.912c0-1.76-0.736-2.784-0.096-2.88l-574.656-0.416C224.992 47.808 224 48.96 224 50.912v477.12h576v-477.12zM224 685.12c0 1.728 0.64 2.752 0.096 2.912H352V672a32 32 0 1 1 64 0v16h192V672a32 32 0 1 1 64 0v16h127.008a4.736 4.736 0 0 0 0.992-2.88V592H224V685.12zM799.84 752H672V768a32 32 0 0 1-64 0v-16h-192V768a32 32 0 0 1-64 0v-16H223.712C188.576 752 160 721.984 160 685.12V50.88c0-36.896 28.608-66.88 63.744-66.88h576.512c35.136 0 63.744 29.984 63.744 66.88V685.12c0 36.896-28.768 66.912-64.16 66.912zM384 336h256a32 32 0 0 1 0 64h-256a32 32 0 0 1 0-64M384 176h256a32 32 0 0 1 0 64h-256a32 32 0 0 1 0-64"  horiz-adv-x="1024" />

    
    <glyph glyph-name="activity_fill" unicode="&#59103;" d="M799.84 752H672V768a32 32 0 0 1-64 0v-16h-192V768a32 32 0 0 1-64 0v-16H223.712C188.576 752 160 721.984 160 685.088V592h704V685.088c0 36.896-28.768 66.912-64.16 66.912M640 400a32 32 0 0 0 0-64h-256a32 32 0 0 0 0 64h256z m-288-192a32 32 0 0 0 32 32h256a32 32 0 0 0 0-64h-256a32 32 0 0 0-32 32z m480 320H160v-477.12c0-36.864 28.608-66.88 63.744-66.88h576.512c35.136 0 63.744 30.016 63.744 66.88V528h-32z"  horiz-adv-x="1024" />

    
    <glyph glyph-name="addition_fill" unicode="&#59104;" d="M683.968 361.056H544v-139.968a32 32 0 0 0-64 0v139.968h-139.968a32 32 0 0 0 0 64H480v139.968a32 32 0 0 0 64 0v-139.968h139.968a32 32 0 0 0 0-64M512 768C300.256 768 128 595.712 128 384c0-211.744 172.256-384 384-384s384 172.256 384 384c0 211.712-172.256 384-384 384"  horiz-adv-x="1024" />

    
    <glyph glyph-name="addition" unicode="&#59105;" d="M512 64c-176.448 0-320 143.552-320 320S335.552 704 512 704s320-143.552 320-320-143.552-320-320-320m0 704C300.256 768 128 595.744 128 384s172.256-384 384-384 384 172.256 384 384S723.744 768 512 768M683.936 425.056H544v139.968a32 32 0 1 1-64 0v-139.968h-139.936a32 32 0 0 1 0-64H480v-139.968a32 32 0 0 1 64 0v139.968h139.968a32 32 0 0 1 0 64"  horiz-adv-x="1024" />

    
    <glyph glyph-name="addpeople_fill" unicode="&#59106;" d="M550.4 71.584c-24.736 57.536-53.216 158.016 2.88 237.376 1.216 0.96 2.08 1.792 3.072 2.656A176.864 176.864 0 0 1 627.2 438.4c0.512 5.568 1.216 11.072 1.216 16.768V559.936C628.416 657.024 552.704 736 459.68 736c-93.024 0-168.736-78.976-168.736-176.064v-104.736c0-60.16 29.12-113.312 73.344-145.088a911.264 911.264 0 0 1-158.08-53.28C179.84 245.76 160 214.912 160 185.088v-113.76c0-3.52 0.544-6.976 1.632-10.304 8.64-26.432 31.936-44.16 58.016-44.16h309.664a29.76 29.76 0 0 1 19.68 7.936c6.592 5.888 11.04 14.304 11.04 24.064 0 0.768-0.448 2.048-0.704 3.136a69.664 69.664 0 0 1-8.928 19.584M804.48 170.752h-39.296V128c0-12.384-9.6-22.4-21.504-22.4a21.952 21.952 0 0 0-21.504 22.4v42.752H681.6a21.952 21.952 0 0 0-21.504 22.4c0 12.384 9.6 22.4 21.504 22.4h40.576V256c0 12.384 9.6 22.4 21.504 22.4 11.904 0 21.504-10.016 21.504-22.4v-40.448h39.296c11.904 0 21.504-10.016 21.504-22.4 0-12.384-9.6-22.4-21.504-22.4m-16.064 207.296A176.64 176.64 0 0 1 743.68 384c-101.632 0-184.32-86.08-184.32-192 0-105.888 82.688-192 184.32-192 15.456 0 30.4 2.24 44.736 5.952C868.48 26.88 928 102.208 928 192s-59.52 165.152-139.584 186.048"  horiz-adv-x="1024" />

    
    <glyph glyph-name="addpeople" unicode="&#59107;" d="M352.416 455.2v104.736C352.416 621.76 400.512 672 459.68 672s107.296-50.24 107.296-112.064v-104.736c0-61.792-48.128-112.064-107.296-112.064-59.168 0-107.264 50.24-107.264 112.064m176.896-374.336l-307.84 0.768v103.456c0 4.224 4.608 11.104 8.608 12.768 1.312 0.64 134.912 61.536 237.12 61.536h31.648c16.96 0 30.72 14.336 30.72 32 0 1.216-0.544 2.24-0.672 3.424 58.56 27.616 99.52 89.056 99.52 160.384v104.736C628.416 657.024 552.736 736 459.68 736c-93.024 0-168.704-78.976-168.704-176.064v-104.736c0-60.16 29.088-113.312 73.312-145.088a912.416 912.416 0 0 1-158.08-53.28C179.84 245.76 160 214.912 160 185.088v-113.76c0-3.52 0.544-6.976 1.632-10.304 8.64-26.432 31.936-44.16 58.048-44.16h309.632c16.96 0 30.72 14.336 30.72 32s-13.76 32-30.72 32M743.68 64c-67.776 0-122.88 57.408-122.88 128s55.104 128 122.88 128 122.88-57.408 122.88-128-55.104-128-122.88-128m0 320c-101.664 0-184.32-86.112-184.32-192s82.656-192 184.32-192c101.664 0 184.32 86.112 184.32 192s-82.656 192-184.32 192M804.48 215.552h-39.296V256c0 12.384-9.6 22.4-21.504 22.4a21.952 21.952 0 0 1-21.504-22.4v-40.448H681.6a21.952 21.952 0 0 1-21.504-22.4c0-12.384 9.6-22.4 21.504-22.4h40.576V128c0-12.384 9.6-22.4 21.504-22.4a21.952 21.952 0 0 1 21.504 22.4v42.752h39.296a21.952 21.952 0 0 1 21.504 22.4c0 12.384-9.6 22.4-21.504 22.4"  horiz-adv-x="1024" />

    
    <glyph glyph-name="addressbook_fill" unicode="&#59108;" d="M896 448h-128a32 32 0 0 1 0-64h128a32 32 0 0 1 0 64M896 576h-128a32 32 0 0 1 0-64h128a32 32 0 0 1 0 64M768 640h128a32 32 0 0 1 0 64h-128a32 32 0 0 1 0-64M781.76 256c-5.12 2.272-97.216 42.56-198.72 62.752 11.808 9.632 22.144 20.928 31.104 33.248a174.88 174.88 0 0 1 33.792 103.2v104.768A176.32 176.32 0 0 1 576 701.664 174.368 174.368 0 0 1 472.192 736c-96.928 0-175.776-78.976-175.776-176.032v-104.768c0-56.544 26.88-106.816 68.384-139.072-96.48-20.832-181.344-57.824-185.536-59.712C150.016 244.672 128 211.808 128 180v-131.712l1.728-5.024c9.504-27.904 35.136-46.624 63.776-46.624h572.992c33.28 0 60.832 24.864 64.96 56.96l0.544 126.4c0 15.232-5.184 30.72-13.664 44-9.088 14.272-21.952 26.016-36.576 32"  horiz-adv-x="1024" />

    
    <glyph glyph-name="barrage_fill" unicode="&#59109;" d="M544 448H288a32 32 0 1 0 0 64h256a32 32 0 1 0 0-64m-288-96a32 32 0 0 0 32 32h128a32 32 0 1 0 0-64H288a32 32 0 0 0-32 32m32-96h128a32 32 0 1 0 0-64H288a32 32 0 1 0 0 64M831.936 704H192.064A64 64 0 0 1 128 640.224v-512.448A64 64 0 0 1 192.064 64h639.872A64 64 0 0 1 896 127.776V640.224A64 64 0 0 1 831.936 704"  horiz-adv-x="1024" />

    
    <glyph glyph-name="barrage" unicode="&#59110;" d="M288 320h128a32 32 0 0 1 0 64H288a32 32 0 0 1 0-64M288 192h128a32 32 0 0 1 0 64H288a32 32 0 0 1 0-64M288 448h256a32 32 0 0 1 0 64H288a32 32 0 0 1 0-64M831.936 128L192 127.776V640.224L192.096 640 832 640.224 831.936 128z m0 576H192.096A64 64 0 0 1 128 640.224v-512.448A64 64 0 0 1 192.096 64h639.84A64 64 0 0 1 896 127.776V640.224A64 64 0 0 1 831.936 704z"  horiz-adv-x="1024" />

    
    <glyph glyph-name="browse_fill" unicode="&#59111;" d="M376.16 344.064v71.872a128.16 128.16 0 0 0 128 128.064c70.592 0 128-57.44 128-128.064v-71.872a128.16 128.16 0 0 0-128-128.064c-70.592 0-128 57.44-128 128.064m494.88 80.96c-2.048 4.704-26.72 59.936-78.88 116.928C733.696 605.856 640.576 672 504.16 672s-229.6-66.24-288-130.016c-52.096-56.864-76.608-111.68-78.208-115.488-12.736-24.896-13.056-60.896-2.016-82.816 0.48-1.248 24.32-60.96 80.224-121.44 57.984-62.72 150.464-126.24 288-126.24 137.504 0 230.08 63.68 288 126.208 55.872 60.32 79.52 119.616 79.552 119.776 11.744 24.896 10.88 61.664-0.672 83.008"  horiz-adv-x="1024" />

    
    <glyph glyph-name="browse" unicode="&#59112;" d="M812.896 367.104C812.16 365.056 730.816 160 504.16 160c-225.44 0-305.248 198.24-309.696 209.376-3.2 6.4-2.944 21.28 1.376 29.92C196.736 401.344 287.776 608 504.16 608c215.296 0 304.384-199.776 309.248-210.752 3.296-6.176 3.552-21.344-0.512-30.144m58.112 57.888C866.72 435.072 762.24 672 504.16 672 246.08 672 141.344 434.56 137.92 426.432c-12.704-24.896-13.056-60.896-1.984-82.752 0.96-2.496 98.048-247.68 368.224-247.68 270.144 0 367.552 245.696 367.552 246.016 11.712 24.832 10.912 61.6-0.704 82.976M568.16 344.032a64.064 64.064 0 0 0-64-64.032c-35.296 0-64 28.704-64 64.032v71.904c0 35.328 28.704 64.064 64 64.064s64-28.736 64-64.064v-71.904z m-64 199.968c-70.592 0-128-57.44-128-128.064v-71.904a128.16 128.16 0 0 1 128-128.032c70.592 0 128 57.44 128 128.032v71.904a128.16 128.16 0 0 1-128 128.064z"  horiz-adv-x="1024" />

    
    <glyph glyph-name="brush" unicode="&#59113;" d="M766.88 460.736l-176.608 176.64 66.72 66.752 176.544-176.704-66.656-66.688zM401.44 95.04L224.64 271.808l0.256-0.064L545.024 592.096l176.64-176.64L401.376 95.04zM224 94.08v87.872l87.712-87.68-87.68-0.192z m655.04 478.528l-176.768 176.736A60.96 60.96 0 0 1 656.96 768a63.968 63.968 0 0 1-45.12-18.848L179.584 316.992a63.936 63.936 0 0 1-17.92-54.368c-0.768-2.688-1.696-5.312-1.696-8.256v-160.288c0-35.136 28.576-63.68 63.712-63.68h160.32c2.88 0 5.504 0.896 8.192 1.632 2.976-0.416 5.952-0.832 8.96-0.832 16.416 0 32.896 6.272 45.44 18.816l432.16 432.16a64 64 0 0 1 0.224 90.432z"  horiz-adv-x="1024" />

    
    <glyph glyph-name="brush_fill" unicode="&#59114;" d="M879.04 572.64l-176.8 176.768a64.032 64.032 0 0 1-90.464-0.224l-67.36-67.392 44.864-44.64 0.96 0.192h0.032l176.64-176.576 30.304-30.4 14.848-14.88 66.72 66.72a64 64 0 0 1 0.224 90.432M325.888 80.64l-13.6 13.632-88.32 88.64-14.08 14.144-40.704 43.392L160 250.24v-156.128c0-35.136 28.576-63.68 63.68-63.68h154.208l-11.648 11.2-40.352 38.976zM545.024 592.128l-45.248 45.056L179.616 317.024l45.248-45.248 176.544-176.704 45.184-45.024 318.976 318.976-43.936 46.496z"  horiz-adv-x="1024" />

    
    <glyph glyph-name="coordinates" unicode="&#59116;" d="M512 82.688C445.568 163.072 288 375.936 288 480c0 123.488 100.48 224 224 224s224-100.512 224-224c0-103.776-156.96-316.064-224-397.344M512 768c-158.784 0-288-129.184-288-288 0-148.416 217.696-413.088 243.232-443.616a57.92 57.92 0 0 1 44.8-21.856h0.096a57.6 57.6 0 0 1 44.512 21.696C581.536 65.984 800 331.328 800 480c0 158.816-129.216 288-288 288M512 416c-35.296 0-64 28.704-64 64s28.704 64 64 64 64-28.704 64-64-28.704-64-64-64m0 192c-70.592 0-128-57.408-128-128s57.408-128 128-128 128 57.408 128 128-57.408 128-128 128"  horiz-adv-x="1024" />

    
    <glyph glyph-name="document" unicode="&#59123;" d="M224 64.064V703.904L223.808 704H576v-159.936c0-35.328 28.736-64.064 64.064-64.064h159.712c0.032-0.512 0.224-1.184 0.224-1.664L800.256 64 224 64.064zM757.664 544L640 544.064V671.872L757.664 544z m76.064 11.872l-163.872 178.08C651.712 753.664 619.264 768 592.672 768H223.808A64.032 64.032 0 0 1 160 703.904v-639.84A64 64 0 0 1 223.744 0h576.512A64 64 0 0 1 864 64.128V478.336c0 25.856-12.736 58.464-30.272 77.536zM640 384h-256a32 32 0 0 1 0-64h256a32 32 0 0 1 0 64M640 224h-256a32 32 0 0 1 0-64h256a32 32 0 0 1 0 64"  horiz-adv-x="1024" />

    
    <glyph glyph-name="document_fill" unicode="&#59124;" d="M833.728 555.872l-163.904 178.144c-7.744 8.448-18.4 15.552-29.824 21.28v-211.2l202.4-0.064c-2.752 4.192-5.536 8.448-8.64 11.84M640 320h-256a32 32 0 1 0 0 64h256a32 32 0 1 0 0-64m0-160h-256a32 32 0 1 0 0 64h256a32 32 0 1 0 0-64m223.808 320h-223.744A64.128 64.128 0 0 0 576 544.128V768H223.808A64 64 0 0 1 160 703.936v-639.84A64 64 0 0 1 223.744 0h576.512A64 64 0 0 1 864 64.16V478.368c0 0.544-0.16 1.12-0.192 1.664"  horiz-adv-x="1024" />

    
    <glyph glyph-name="dynamic_fill" unicode="&#59125;" d="M763.712 407.936l-139.424-139.424a31.904 31.904 0 0 0-45.248 0l-102.336 102.336-134.208-132.864a31.936 31.936 0 0 0-45.248 0.256 32 32 0 0 0 0.224 45.248l156.832 155.264a32 32 0 0 0 45.152-0.128l102.208-102.24 116.8 116.8a31.968 31.968 0 1 0 45.248-45.248M800.256 736H223.744A63.808 63.808 0 0 1 160 672.256v-576.512C160 60.576 188.576 32 223.744 32h576.512A63.808 63.808 0 0 1 864 95.744V672.256A63.84 63.84 0 0 1 800.256 736"  horiz-adv-x="1024" />

    
    <glyph glyph-name="dynamic" unicode="&#59126;" d="M224 95.744V672l576 0.288 0.256-576.32L224 95.776zM800.256 736H223.744A63.808 63.808 0 0 1 160 672.288v-576.544C160 60.608 188.608 32 223.744 32h576.512A63.84 63.84 0 0 1 864 95.744V672.288a63.808 63.808 0 0 1-63.744 63.68zM718.464 453.184l-116.8-116.768-102.176 102.208a32 32 0 0 1-45.152 0.128l-156.832-155.2a32.032 32.032 0 0 1 45.024-45.536l134.208 132.832 102.336-102.336a32.96 32.96 0 0 1 45.248 0l139.392 139.424a31.968 31.968 0 1 1-45.248 45.248"  horiz-adv-x="1024" />

    
    <glyph glyph-name="editor" unicode="&#59127;" d="M489.376 361.376a31.904 31.904 0 0 1 45.248 0l304 304a31.968 31.968 0 1 1-45.248 45.248l-304-304a31.968 31.968 0 0 1 0-45.248M832 416a32 32 0 0 1-32-32l0.256-288L224 95.744 223.744 672H512a32 32 0 0 1 0 64H223.744A63.84 63.84 0 0 1 160 672.256v-576.512C160 60.608 188.608 32 223.744 32h576.512A63.84 63.84 0 0 1 864 95.744V384a32 32 0 0 1-32 32"  horiz-adv-x="1024" />

    
    <glyph glyph-name="empty" unicode="&#59128;" d="M590.208 441.824v-210.496a32 32 0 1 1 64 0v210.496a32 32 0 1 1-64 0M398.208 441.824v-210.496a32 32 0 1 1 64 0v210.496a32 32 0 1 1-64 0M377.664 636.416l-8.896 63.36 253.504 35.648 8.928-63.392-253.536-35.616z m443.616 62.336l-126.72-17.792-11.872 84.416a36.512 36.512 0 0 1-14.432 24.224c-16.416 12.384-41.28 11.072-54.752 9.216L359.68 763.136c-46.592-6.56-60.16-30.688-57.28-51.072l11.84-84.544-126.72-17.824a32 32 0 1 1 8.928-63.36l45.92 6.432a31.36 31.36 0 0 1-4.192-14.976v-447.936c0-35.328 28.704-64.032 64-64.032h447.968a64.096 64.096 0 0 1 64 64.032V537.792a32 32 0 1 1-64 0v-447.968l-448 0.032V537.792a31.744 31.744 0 0 1-8.992 22.112l537.056 75.488a32 32 0 0 1 27.2 36.16 31.648 31.648 0 0 1-36.16 27.2z"  horiz-adv-x="1024" />

    
    <glyph glyph-name="empty_fill" unicode="&#59129;" d="M821.344 698.752l-126.752-17.824-11.904 84.512a36.48 36.48 0 0 1-14.464 24.192c-16.416 12.384-41.376 11.072-54.688 9.152l-253.792-35.648c-46.624-6.56-60.16-30.688-57.312-51.072l11.008-78.24 0.896-6.336-76.128-10.688-50.656-7.136a32 32 0 1 1 8.928-63.36l23.552 3.328 18.176 2.528 4.224 0.608 50.752 7.136 63.936 8.992 73.088 10.272 192 26.976 192 27.008 16.032 2.24c17.504 2.432 29.696 18.624 27.232 36.128s-18.528 29.76-36.128 27.232zM398.208 441.792a32 32 0 0 0 64 0v-210.496a32 32 0 0 0-64 0v210.496z m192 0a32 32 0 0 0 64 0v-210.496a32 32 0 0 0-64 0v210.496z m-352 40.736v-392.704c0-20.608 9.984-38.816 25.184-50.56 10.816-8.32 24.192-13.44 38.848-13.44h447.936a63.36 63.36 0 0 1 38.816 13.44c15.232 11.712 25.216 29.888 25.216 50.56V501.824H237.344l0.864-19.328z"  horiz-adv-x="1024" />

    
    <glyph glyph-name="enter" unicode="&#59130;" d="M693.792 397.76l-320 297.664a32 32 0 0 1-43.584-46.848l295.36-274.752-295.84-286.848a31.968 31.968 0 1 1 44.544-45.92l320 310.272a31.968 31.968 0 0 1-0.48 46.4"  horiz-adv-x="1024" />

    
    <glyph glyph-name="enterinto_fill" unicode="&#59131;" d="M629.856 345.024l-160-149.76a31.904 31.904 0 0 0-45.216 1.504 31.936 31.936 0 0 0 1.504 45.216l134.496 125.888-134.016 120.32a32 32 0 1 0 42.752 47.616l160-143.616a31.904 31.904 0 0 0 0.48-47.168M512 768C300.256 768 128 595.744 128 384c0-211.712 172.256-384 384-384s384 172.288 384 384c0 211.744-172.256 384-384 384"  horiz-adv-x="1024" />

    
    <glyph glyph-name="feedback_fill" unicode="&#59132;" d="M544 314.304v-15.488a32 32 0 1 0-64 0V336c0 14.848 10.304 26.752 24 30.4 72.032 30.08 72.064 74.688 72 76.608l-0.032 49.184c0 28.544-28.704 51.84-64 51.84-35.264 0-63.968-23.296-63.968-51.84v-15.584a32 32 0 0 0-64 0v15.584c0 63.84 57.408 115.84 127.968 115.84 70.592 0 128-52 128-115.84v-47.584c0.16-1.28 4.672-80.768-95.968-130.304M512 160a32 32 0 1 0 0 64 32 32 0 0 0 0-64m0 608C300.256 768 128 595.712 128 384c0-211.744 172.256-384 384-384s384 172.256 384 384c0 211.712-172.256 384-384 384"  horiz-adv-x="1024" />

    
    <glyph glyph-name="feedback" unicode="&#59133;" d="M704 128.608A318.016 318.016 0 0 0 512 64a318.016 318.016 0 0 0-192 64.608C242.464 187.072 192 279.616 192 384c0 176.448 143.552 320 320 320s320-143.552 320-320c0-104.384-50.464-196.928-128-255.392M512 768C300.256 768 128 595.744 128 384c0-141.76 77.408-265.504 192-332.032A381.312 381.312 0 0 1 511.936 0h0.128A381.312 381.312 0 0 1 704 51.968c114.592 66.528 192 190.272 192 332.032 0 211.744-172.256 384-384 384M639.936 492.16C639.936 556.096 582.528 608 512 608c-70.592 0-128-51.936-128-115.84v-15.52a32 32 0 1 1 64 0v15.552c0 28.576 28.736 51.808 64 51.808 35.296 0 64-23.232 64-51.84v-49.152c0.064-1.536-0.544-31.616-39.808-59.008a169.44 169.44 0 0 0-32.16-17.6 31.584 31.584 0 0 1-24-30.4v-37.184a32 32 0 0 1 64 0v15.488c41.952 20.672 65.696 46.464 79.04 69.696 18.56 32.512 16.992 59.84 16.896 60.64V492.16zM512 224a32 32 0 1 1 0-64 32 32 0 0 1 0 64"  horiz-adv-x="1024" />

    
    <glyph glyph-name="headlines" unicode="&#59137;" d="M831.904 128L192 127.776 192.096 640 832 640.192l0.224-512.16-0.32-0.032m0 576H192.096A64 64 0 0 1 128 640.192v-512.416A64 64 0 0 1 192.096 64h639.808A64.032 64.032 0 0 1 896 127.776V640.192A64.032 64.032 0 0 1 831.904 704M288 320h128a32 32 0 1 1 0 64H288a32 32 0 1 1 0-64M544 256H288a32 32 0 1 1 0-64h256a32 32 0 1 1 0 64M512 576v-256h256v256h-256z m192-192h-128v128h128v-128z"  horiz-adv-x="1024" />

    
    <glyph glyph-name="mail" unicode="&#59146;" d="M831.936 128L192 127.808V517.696l302.816-192.704a32.096 32.096 0 0 1 34.4 0L832 517.696 831.936 128zM192 640.224L192.096 640 832 640.224v-46.656l-320-203.616L192 593.568V640.224zM831.936 704H192.096A64 64 0 0 1 128 640.224v-512.416C128 92.64 156.768 64 192.096 64h639.84A64 64 0 0 1 896 127.808V640.224A64 64 0 0 1 831.936 704z"  horiz-adv-x="1024" />

    
    <glyph glyph-name="order" unicode="&#59155;" d="M224 64.064V703.904L223.744 704 800 703.904 800.256 64 224 64.064zM800.256 768H223.744A64 64 0 0 1 160 703.904v-639.84A64 64 0 0 1 223.744 0h576.512A64 64 0 0 1 864 64.064V703.904A64 64 0 0 1 800.256 768zM640 480h-256a32 32 0 0 1 0-64h256a32 32 0 0 1 0 64M640 320h-256a32 32 0 0 1 0-64h256a32 32 0 0 1 0 64"  horiz-adv-x="1024" />

    
    <glyph glyph-name="picture_fill" unicode="&#59158;" d="M799.936 174.016V96l-407.648-0.16 0.064 0.032-90.496-0.032 0.96 0.96 332.448 317.952 164.704-150.24v-90.496zM416 576c52.96 0 96-43.072 96-96s-43.04-96-96-96c-52.928 0-96 43.072-96 96s43.072 96 96 96zM800.32 736H223.744A63.776 63.776 0 0 1 160 672.256v-576.512C160 60.608 188.576 32 223.744 32H800.32A63.84 63.84 0 0 1 864 95.744V672.256A63.808 63.808 0 0 1 800.32 736z"  horiz-adv-x="1024" />

    
    <glyph glyph-name="picture" unicode="&#59159;" d="M392.32 95.808l242.912 242.944 164.992-164.992 0.032-77.76-407.968-0.192zM224 672l576 0.256 0.192-407.968-142.336 142.336a31.968 31.968 0 0 1-45.248 0L301.76 95.776H224V672z m576.256 64H223.712a63.808 63.808 0 0 1-63.68-63.744v-576.512C160 60.576 188.544 32 223.68 32h576.544A63.808 63.808 0 0 1 864 95.744V672.256A63.84 63.84 0 0 1 800.256 736zM416 512a31.68 31.68 0 0 0 32-32 31.68 31.68 0 0 0-32-32 31.68 31.68 0 0 0-32 32c0 17.952 14.048 32 32 32m0-128c52.928 0 96 43.072 96 96s-43.072 96-96 96-96-43.072-96-96 43.072-96 96-96"  horiz-adv-x="1024" />

    
    <glyph glyph-name="play" unicode="&#59160;" d="M384 143.712l299.68 231.552L384 606.848V143.68z m-64-65.152V672a32 32 0 0 0 51.552 25.312l384-296.704a32 32 0 0 0 0-50.656l-384-296.736A32 32 0 0 0 320 78.56z"  horiz-adv-x="1024" />

    
    <glyph glyph-name="play_fill" unicode="&#59161;" d="M755.552 400.64l-384 296.672a31.936 31.936 0 0 1-51.552-25.28v-593.504a32 32 0 0 1 51.552-25.28l384 296.704a32 32 0 0 1 0 50.656"  horiz-adv-x="1024" />

    
    <glyph glyph-name="refresh" unicode="&#59166;" d="M832 384a32 32 0 0 1-32-32c0-158.784-129.216-288-288-288s-288 129.216-288 288 129.216 288 288 288c66.208 0 129.536-22.752 180.608-64H608a32 32 0 0 1 0-64h160a32 32 0 0 1 32 32V704a32 32 0 0 1-64 0v-80.96A350.464 350.464 0 0 1 512 704C317.92 704 160 546.08 160 352s157.92-352 352-352 352 157.92 352 352a32 32 0 0 1-32 32"  horiz-adv-x="1024" />

    
    <glyph glyph-name="remind_fill" unicode="&#59167;" d="M512 17.44c48.96 0 91.296 25.504 114.56 63.04h-229.12a134.304 134.304 0 0 1 114.56-63.04M858.144 162.496l2.24 1.088c-17.664 33.12-63.424 128.992-63.424 174.176v158.336C796.96 646.016 669.12 768 512 768c-157.12 0-284.928-121.984-284.928-271.904v-160.672c0-39.52-38.88-126.272-63.36-171.68l2.24-1.12a30.24 30.24 0 0 1-5.952-17.184c0-17.664 15.04-32 33.536-32h160.48v1.056H696v-1.056h134.496c18.496 0 33.504 14.336 33.504 32 0 6.4-2.464 12.032-5.856 17.056"  horiz-adv-x="1024" />

    
    <glyph glyph-name="remind" unicode="&#59168;" d="M612.576 177.44H244.896c20.96 44.448 49.184 112.64 49.184 157.984v160.64C294.08 610.784 391.84 704 512 704c120.16 0 217.92-93.248 217.92-207.904v-158.336c0-45.952 28.448-115.36 49.44-160.32h-166.784z m-100.576-96c-24.704 0-46.08 12.96-57.728 32h115.456c-11.648-19.04-33.024-32-57.728-32z m346.144 81.056l2.24 1.088c-17.664 33.12-63.424 128.96-63.424 174.176v158.336C796.96 646.016 669.12 768 512 768c-157.12 0-284.96-121.984-284.96-271.904v-160.672c0-39.52-38.848-126.272-63.328-171.68l2.24-1.12a30.24 30.24 0 0 1-5.952-17.184c0-17.664 15.04-32 33.536-32h189.12c15.008-55.04 67.072-96 129.344-96 62.272 0 114.336 40.96 129.344 96h189.12c18.528 0 33.536 14.336 33.536 32a30.4 30.4 0 0 1-5.856 17.056z"  horiz-adv-x="1024" />

    
    <glyph glyph-name="return" unicode="&#59169;" d="M694.272 86.976l-295.808 286.848 295.36 274.752a32 32 0 0 1-43.616 46.848l-320-297.696a32 32 0 0 1-0.512-46.4l320-310.304a32.032 32.032 0 0 1 44.576 45.952"  horiz-adv-x="1024" />

    
    <glyph glyph-name="right" unicode="&#59170;" d="M822.464 630.656a28.256 28.256 0 0 1-43.072-1.312l-352.96-417.664-181.92 212.992a28.288 28.288 0 0 1-43.104 1.088 37.12 37.12 0 0 1-0.96-48.256l204.096-238.944c5.76-6.752 13.696-10.56 22.016-10.56h0.096a29.088 29.088 0 0 1 22.048 10.656L823.68 582.4c11.52 13.728 11.008 35.328-1.216 48.256"  horiz-adv-x="1024" />

    
    <glyph glyph-name="scan" unicode="&#59171;" d="M832 416H192a32 32 0 0 1 0-64h640a32 32 0 0 1 0 64M800.256 736H223.712a63.808 63.808 0 0 1-63.68-63.744V512a32 32 0 1 1 64 0l-0.32 160 576.32 0.256V512a32 32 0 1 1 64 0V672.256A63.84 63.84 0 0 1 800.224 736M832 288a32 32 0 0 1-32-32l0.256-160L224 95.744V256a32 32 0 0 1-64 0v-160.256C160 60.608 188.608 32 223.744 32h576.512A63.84 63.84 0 0 1 864 95.744V256a32 32 0 0 1-32 32"  horiz-adv-x="1024" />

    
    <glyph glyph-name="send" unicode="&#59174;" d="M832 320a32 32 0 0 1-32-32l0.256-192L224 95.744 223.744 672H416a32 32 0 0 1 0 64H223.744A63.84 63.84 0 0 1 160 672.256v-576.512C160 60.608 188.608 32 223.744 32h576.512A63.84 63.84 0 0 1 864 95.744V288a32 32 0 0 1-32 32M800.544 736H640a32 32 0 0 1 0-64l114.944 0.192-265.6-265.568a32 32 0 0 1 45.28-45.248l265.664 265.632v-115.264a32 32 0 1 1 64 0V672.256A63.84 63.84 0 0 1 800.544 736"  horiz-adv-x="1024" />

    
    <glyph glyph-name="service_fill" unicode="&#59175;" d="M712.32 240a224.736 224.736 0 0 0-193.984-112 224.832 224.832 0 0 0-194.048 112 32 32 0 1 0 55.36 32 160.8 160.8 0 0 1 138.688-80 160.48 160.48 0 0 1 138.56 80A32 32 0 1 0 712.32 240M800.256 640H223.744A63.808 63.808 0 0 1 160 576.256v-512.416C160 28.608 188.576 0 223.744 0h576.512A63.872 63.872 0 0 1 864 63.808V576.224A63.84 63.84 0 0 1 800.256 640M512 736c52.928 0 96-43.072 96-96h64c0 88.224-71.776 160-160 160s-160-71.776-160-160h64c0 52.928 43.072 96 96 96"  horiz-adv-x="1024" />

    
    <glyph glyph-name="service" unicode="&#59176;" d="M224 63.808V576l576 0.224L800.256 64 224 63.808zM512 736c52.928 0 96-43.04 96-96h-192c0 52.96 43.072 96 96 96z m288.256-96H672c0 88.224-71.776 160-160 160s-160-71.776-160-160H223.744A63.84 63.84 0 0 1 160 576.224v-512.416C160 28.608 188.608 0 223.744 0h576.512A63.872 63.872 0 0 1 864 63.808V576.224A63.84 63.84 0 0 1 800.256 640zM700.64 283.712a32 32 0 0 1-43.712-11.68A160.608 160.608 0 0 0 518.304 192a160.576 160.576 0 0 0-138.592 80 32 32 0 0 1-55.424-32.032 224.896 224.896 0 0 1 194.016-112 224.768 224.768 0 0 1 194.016 112 32 32 0 0 1-11.68 43.744"  horiz-adv-x="1024" />

    
    <glyph glyph-name="setup_fill" unicode="&#59177;" d="M672 394.56c0-88.192-71.776-160-160-160s-160 71.808-160 160c0 88.256 71.776 160 160 160s160-71.744 160-160m209.472 104.96a31.776 31.776 0 0 1-32.832 23.2 62.688 62.688 0 0 0-16.64 1.152 63.808 63.808 0 0 0-42.88 30.72 63.744 63.744 0 0 0 2.112 67.488 32 32 0 0 1-3.68 39.968c-19.584 20.16-41.632 37.248-64.832 52.544-35.808 23.616-74.976 41.92-116.864 52.448a31.968 31.968 0 0 1-36.48-16.832 63.68 63.68 0 0 0-57.28-35.616h-0.192a63.68 63.68 0 0 0-57.28 35.616 32 32 0 0 1-36.48 16.832c-41.92-10.56-81.056-28.832-116.864-52.48-23.2-15.264-45.248-32.352-64.832-52.512a32 32 0 0 1-3.712-40 63.68 63.68 0 0 0 2.112-67.456A63.392 63.392 0 0 0 192 523.968a62.816 62.816 0 0 0-16.672-1.28 31.52 31.52 0 0 1-32.8-23.168A383.136 383.136 0 0 1 128 394.56c0-35.616 4.864-70.912 14.528-104.864a31.904 31.904 0 0 1 32.8-23.2c5.664 0.32 11.264-0.224 16.672-1.312a63.776 63.776 0 0 0 40.736-98.048 32 32 0 0 1 3.712-40c19.584-20.16 41.632-37.248 64.8-52.544 35.84-23.68 74.976-41.92 116.896-52.416a31.936 31.936 0 0 1 36.48 16.832A63.648 63.648 0 0 0 512 74.56c24.512 0 46.496-13.632 57.376-35.584a32 32 0 0 1 36.48-16.832c41.92 10.496 81.056 28.768 116.864 52.416 23.2 15.296 45.248 32.384 64.832 52.576a32 32 0 0 1 3.68 39.968 63.68 63.68 0 0 0-2.112 67.456c9.408 16.32 24.992 27.2 42.88 30.72a65.28 65.28 0 0 0 16.64 1.184c15.04-0.896 28.704 8.736 32.832 23.2A384.64 384.64 0 0 1 896 394.56c0 35.648-4.896 70.944-14.528 104.928"  horiz-adv-x="1024" />

    
    <glyph glyph-name="setup" unicode="&#59178;" d="M825.312 329.184a127.04 127.04 0 0 1-91.616-62.624 127.232 127.232 0 0 1-8.448-110.56 318.976 318.976 0 0 0-113.216-65.472A127.072 127.072 0 0 1 512 138.56a127.2 127.2 0 0 1-100.064-48 319.232 319.232 0 0 0-113.216 65.44 127.232 127.232 0 0 1-8.416 110.56 127.04 127.04 0 0 1-91.648 62.624 323.232 323.232 0 0 0 0 130.784 127.104 127.104 0 0 1 91.648 62.592 127.296 127.296 0 0 1 8.416 110.592 318.976 318.976 0 0 0 113.216 65.472A127.232 127.232 0 0 1 512 650.56c39.712 0 76.064 17.92 100.032 48.064a318.72 318.72 0 0 0 113.216-65.472 127.328 127.328 0 0 1 8.448-110.592 127.104 127.104 0 0 1 91.616-62.592 321.536 321.536 0 0 0 0-130.784m56.16 170.304a31.776 31.776 0 0 1-32.832 23.2 63.584 63.584 0 0 0-59.52 31.872 63.744 63.744 0 0 0 2.112 67.52 32 32 0 0 1-3.68 39.936 383.392 383.392 0 0 1-181.696 104.992 31.968 31.968 0 0 1-36.48-16.832A63.68 63.68 0 0 0 512 714.56a63.68 63.68 0 0 0-57.376 35.616 32 32 0 0 1-36.48 16.832 383.264 383.264 0 0 1-181.696-104.96 32 32 0 0 1-3.712-40 63.68 63.68 0 0 0 2.112-67.488 63.68 63.68 0 0 0-59.52-31.872 31.52 31.52 0 0 1-32.8-23.2A383.136 383.136 0 0 1 128 394.56c0-35.648 4.864-70.944 14.528-104.896a31.904 31.904 0 0 1 32.8-23.2 64.032 64.032 0 0 0 59.52-31.904c12.256-21.184 11.456-47.04-2.112-67.456a32 32 0 0 1 3.712-39.968 382.88 382.88 0 0 1 181.696-104.96 31.936 31.936 0 0 1 36.48 16.8A63.648 63.648 0 0 0 512 74.56c24.512 0 46.496-13.632 57.376-35.584a32 32 0 0 1 36.48-16.832 383.04 383.04 0 0 1 181.696 104.992 32 32 0 0 1 3.68 40 63.68 63.68 0 0 0-2.112 67.424 63.136 63.136 0 0 0 59.52 31.904c15.04-0.896 28.704 8.736 32.832 23.2A384.64 384.64 0 0 1 896 394.56c0 35.648-4.896 70.944-14.528 104.96M512 298.56c-52.928 0-96 43.104-96 96 0 52.96 43.072 96 96 96s96-43.04 96-96c0-52.896-43.072-96-96-96m0 256c-88.224 0-160-71.744-160-160 0-88.224 71.776-160 160-160s160 71.808 160 160c0 88.256-71.776 160-160 160"  horiz-adv-x="1024" />

    
    <glyph glyph-name="share_fill" unicode="&#59179;" d="M736 288a127.776 127.776 0 0 1-115.232-73.28l-204.896 117.056a30.848 30.848 0 0 1-9.696 3.2A127.68 127.68 0 0 1 416 384c0 6.656-0.992 13.088-1.984 19.456 0.608 0.32 1.28 0.416 1.856 0.768l219.616 125.472A127.328 127.328 0 0 1 736 480c70.592 0 128 57.408 128 128s-57.408 128-128 128-128-57.408-128-128c0-6.72 0.992-13.152 1.984-19.616-0.608-0.288-1.28-0.256-1.856-0.608l-219.616-125.472A127.328 127.328 0 0 1 288 512c-70.592 0-128-57.408-128-128s57.408-128 128-128a126.912 126.912 0 0 1 84.544 32.64 31.232 31.232 0 0 1 11.584-12.416l224-128c0.352-0.224 0.736-0.256 1.12-0.448C615.488 83.008 669.6 32 736 32c70.592 0 128 57.408 128 128s-57.408 128-128 128"  horiz-adv-x="1024" />

    
    <glyph glyph-name="share" unicode="&#59180;" d="M736 96c-35.296 0-64 28.704-64 64s28.704 64 64 64 64-28.704 64-64-28.704-64-64-64M288 320c-35.296 0-64 28.704-64 64s28.704 64 64 64 64-28.704 64-64-28.704-64-64-64M736 672c35.296 0 64-28.704 64-64s-28.704-64-64-64-64 28.704-64 64 28.704 64 64 64m0-384a127.776 127.776 0 0 1-115.232-73.28l-204.896 117.056a30.848 30.848 0 0 1-9.696 3.2A127.68 127.68 0 0 1 416 384c0 6.656-0.992 13.088-1.984 19.456 0.608 0.32 1.28 0.416 1.856 0.768l219.616 125.472A127.328 127.328 0 0 1 736 480c70.592 0 128 57.408 128 128s-57.408 128-128 128-128-57.408-128-128c0-6.72 0.992-13.152 1.984-19.616-0.608-0.288-1.28-0.256-1.856-0.608l-219.616-125.472A127.328 127.328 0 0 1 288 512c-70.592 0-128-57.408-128-128s57.408-128 128-128a126.912 126.912 0 0 1 84.544 32.64 31.232 31.232 0 0 1 11.584-12.416l224-128c0.352-0.224 0.736-0.256 1.12-0.448C615.488 83.008 669.6 32 736 32c70.592 0 128 57.408 128 128s-57.408 128-128 128"  horiz-adv-x="1024" />

    
    <glyph glyph-name="shielding" unicode="&#59181;" d="M512.608 128H223.872A31.904 31.904 0 0 0 192 159.84L192.096 640h608.192c17.504 0 31.68-14.432 31.68-32.128v-161.856a32 32 0 0 1 64 0V607.872A96 96 0 0 1 800.32 704H192.096A64 64 0 0 1 128 640.224v-480.384A96 96 0 0 1 223.872 64h288.736a32 32 0 0 1 0 64M416 384H288a32 32 0 0 1 0-64h128a32 32 0 0 1 0 64M416 256H288a32 32 0 0 1 0-64h128a32 32 0 0 1 0 64M544 512H288a32 32 0 0 1 0-64h256a32 32 0 0 1 0 64M768 64c-70.592 0-128 57.408-128 128 0 23.68 6.88 45.568 18.144 64.608l174.464-174.464A126.304 126.304 0 0 0 768 64m0 256c70.592 0 128-57.408 128-128 0-23.68-6.88-45.568-18.144-64.608l-174.464 174.464A126.304 126.304 0 0 0 768 320m0 64c-105.888 0-192-86.112-192-192s86.112-192 192-192 192 86.112 192 192-86.112 192-192 192"  horiz-adv-x="1024" />

    
    <glyph glyph-name="success_fill" unicode="&#59182;" d="M666.272 423.712l-175.616-192a31.904 31.904 0 0 0-23.616-10.4h-0.192a32 32 0 0 0-23.68 10.688l-85.728 96a32 32 0 1 0 47.744 42.624l62.144-69.6 151.712 165.888a32 32 0 1 0 47.232-43.2m-154.24 344.32C300.224 768 128 595.68 128 384c0-211.776 172.224-384 384-384 211.68 0 384 172.224 384 384 0 211.68-172.32 384-384 384"  horiz-adv-x="1024" />

    
    <glyph glyph-name="success" unicode="&#59183;" d="M512 64c-176.448 0-320 143.552-320 320S335.552 704 512 704s320-143.552 320-320-143.552-320-320-320m0 704C300.256 768 128 595.744 128 384s172.256-384 384-384 384 172.256 384 384S723.744 768 512 768M619.072 466.912l-151.744-165.888-62.112 69.6a32 32 0 1 1-47.744-42.624l85.696-96a32 32 0 0 1 23.68-10.688h0.192c8.96 0 17.536 3.776 23.616 10.4l175.648 192a32 32 0 0 1-47.232 43.2"  horiz-adv-x="1024" />

    
    <glyph glyph-name="switch" unicode="&#59184;" d="M512 576c23.616 0 44.032 12.96 55.136 32 5.472 9.44 8.864 20.288 8.864 32a64 64 0 1 1-128 0c0-11.712 3.392-22.56 8.864-32 11.104-19.04 31.52-32 55.136-32M512 448c-23.616 0-44.032-12.96-55.136-32A63.584 63.584 0 0 1 448 384c0-11.712 3.392-22.56 8.864-32 11.104-19.04 31.52-32 55.136-32 23.616 0 44.032 12.96 55.136 32 5.472 9.44 8.864 20.288 8.864 32s-3.392 22.56-8.864 32c-11.104 19.04-31.52 32-55.136 32M512 192c-23.616 0-44.032-12.96-55.136-32A63.584 63.584 0 0 1 448 128a64 64 0 1 1 128 0c0 11.712-3.392 22.56-8.864 32-11.104 19.04-31.52 32-55.136 32"  horiz-adv-x="1024" />

    
    <glyph glyph-name="systemprompt_fill" unicode="&#59185;" d="M746.912 586.144a30.4 30.4 0 0 1-42.112-9.312 31.424 31.424 0 0 1 8.896-42.976c1.088-0.736 10.4-7.264 22.304-20.32 24.256-26.624 59.52-80.736 59.52-171.36 0-94.112-36.32-148.992-59.52-174.464-10.176-11.2-17.888-16.768-18.784-17.408a31.36 31.36 0 0 1-8.512-43.168c5.888-8.96 15.616-13.824 25.536-13.824 0.576 0 1.184 0.224 1.76 0.256a30.464 30.464 0 0 1 15.2 4.96c4.32 2.912 105.632 73.376 105.632 243.68 0 170.592-105.408 241.024-109.92 243.936M651.488 494.784a30.304 30.304 0 0 1-40.416-14.624 31.552 31.552 0 0 1 13.984-41.504c1.92-1.024 47.872-25.216 47.872-94.208 0-73.664-42.944-98.08-44.352-98.88a31.328 31.328 0 0 1-13.76-41.76 30.656 30.656 0 0 1 41.184-13.952c3.168 1.664 78.208 41.056 78.208 154.592 0 109.568-79.36 148.704-82.72 150.336M550.016 700.608a43.84 43.84 0 0 1-10.176 2.88c-10.176 1.6-25.056 0.256-40.992-14.272l-34.624-31.456-16.224-14.752-101.632-92.384H223.712a63.936 63.936 0 0 1-63.712-64v-205.504c0-35.264 28.608-64 63.712-64h85.632L448 91.072l50.848-46.208c12.864-11.648 25.024-14.912 34.592-14.912 2.4 0 4.352 0.416 6.4 0.768a44.48 44.48 0 0 1 10.272 2.688c7.808 3.456 25.888 14.784 25.888 45.408V655.328c0 0.864-0.256 1.6-0.288 2.432-0.736 19.936-10.08 35.904-25.696 42.848"  horiz-adv-x="1024" />

    
    <glyph glyph-name="systemprompt" unicode="&#59186;" d="M746.88 586.112a30.272 30.272 0 0 1-42.112-9.344 31.424 31.424 0 0 1 8.896-42.944c3.296-2.24 81.824-56.576 81.824-191.68 0-135.456-75.328-189.824-78.304-191.872a31.36 31.36 0 0 1-8.512-43.2 30.496 30.496 0 0 1 42.496-8.576c4.32 2.88 105.632 73.376 105.632 243.68 0 170.56-105.408 241.024-109.92 243.936M651.456 494.72a30.304 30.304 0 0 1-40.416-14.592 31.552 31.552 0 0 1 13.984-41.504c1.952-1.024 47.872-25.216 47.872-94.208 0-73.664-42.944-98.08-44.352-98.88a31.328 31.328 0 0 1-13.728-41.76 30.656 30.656 0 0 1 41.152-13.952c3.2 1.664 78.208 41.056 78.208 154.56 0 109.6-79.36 148.736-82.72 150.368M512 119.328l-64 58.176-104.768 95.264a32.064 32.064 0 0 1-21.568 8.32L224 281.056l-0.32 205.504h128.576c9.856-1.824 19.968 1.024 27.424 7.776l68.288 62.112 64 58.176v-495.296z m38.016 581.216c-7.84 3.456-28.512 9.248-51.2-11.392L448 642.944l-101.632-92.384H223.68A63.936 63.936 0 0 1 160 486.592v-205.536c0-35.264 28.576-63.968 63.68-63.968h85.632L448 91.008l50.88-46.24c12.832-11.648 24.992-14.912 34.56-14.912 7.392 0 13.28 1.952 16.672 3.456 7.808 3.456 25.92 14.784 25.92 45.408V655.264c0 21.152-9.728 38.048-26.016 45.28z"  horiz-adv-x="1024" />

    
    <glyph glyph-name="task" unicode="&#59187;" d="M224 95.744L223.712 672H320v-31.68c0-35.456 28.64-64.32 63.872-64.32h256.256A64.16 64.16 0 0 1 704 640.32V672l96 0.256L800.256 96 224 95.744zM640 703.68L640.128 640 384 640.32V703.68L383.872 704 640 703.68zM799.84 736H695.04c-11.072 19.04-31.424 32-54.912 32h-256.256c-23.488 0-43.808-12.928-54.912-32H223.712A63.776 63.776 0 0 1 160 672.256v-576.512C160 60.608 188.608 32 223.744 32h576.512A63.84 63.84 0 0 1 864 95.744V672.256A64 64 0 0 1 799.84 736zM619.072 466.912l-151.744-165.888-62.112 69.6a32 32 0 1 1-47.744-42.624l85.696-96a32 32 0 0 1 23.68-10.688h0.192c8.96 0 17.536 3.776 23.616 10.4l175.648 192a32 32 0 0 1-47.232 43.2"  horiz-adv-x="1024" />

    
    <glyph glyph-name="task_fill" unicode="&#59188;" d="M666.304 422.464l-175.616-192c-6.08-6.624-14.656-10.4-23.648-10.4h-0.16a32.064 32.064 0 0 0-23.68 10.688l-85.728 96a32 32 0 1 0 47.744 42.624l62.112-69.6 151.712 165.888a32.032 32.032 0 0 0 47.264-43.2m133.568 312.32H736c-0.064 0 0-20.544 0-32.32v-63.36a64.16 64.16 0 0 0-63.808-64.384h-320.32A64.16 64.16 0 0 0 288 639.072v63.36c0 11.84-0.128 21.472-0.128 32.32H223.744A63.808 63.808 0 0 1 160 671.04v-576.512c0-35.168 28.576-63.744 63.744-63.744H800.32A63.808 63.808 0 0 1 864 94.496V671.04c0 35.136-28.8 63.744-64.128 63.744M668.608 746.56a42.56 42.56 0 0 1-36.8 21.44H395.84c-15.776 0-29.44-8.64-36.864-21.408a43.136 43.136 0 0 1-6.016-21.728v-42.496c0-23.84 19.2-43.2 42.88-43.2h235.968c23.616 0 42.816 19.36 42.816 43.2V724.864c0 8-2.272 15.264-6.016 21.696"  horiz-adv-x="1024" />

    
    <glyph glyph-name="time_fill" unicode="&#59189;" d="M641.92 247.04a31.904 31.904 0 0 0-45.248 0l-107.296 107.232a31.872 31.872 0 0 0-9.376 22.624V576a32 32 0 0 0 64 0v-185.856l97.92-97.888a31.968 31.968 0 0 0 0-45.248M512 768C300.256 768 128 595.744 128 384s172.256-384 384-384 384 172.256 384 384S723.744 768 512 768"  horiz-adv-x="1024" />

    
    <glyph glyph-name="time" unicode="&#59190;" d="M512 64c-176.448 0-320 143.552-320 320S335.552 704 512 704s320-143.552 320-320-143.552-320-320-320m0 704C300.256 768 128 595.744 128 384s172.256-384 384-384 384 172.256 384 384S723.744 768 512 768M544 390.144V576a32 32 0 0 1-64 0v-199.104c0-8.48 3.36-16.64 9.376-22.624l107.296-107.296a31.904 31.904 0 0 1 45.248 0 32 32 0 0 1 0 45.248L544 390.144z"  horiz-adv-x="1024" />

    
    <glyph glyph-name="translation_fill" unicode="&#59191;" d="M506.208 224c88.224 0 160 71.648 160 159.744V576.224a160.064 160.064 0 0 1-160 159.776c-88.224 0-160-71.68-160-159.776v-192.48a160.032 160.032 0 0 1 160-159.744M742.4 448a32 32 0 0 1-32-32v-24.704c0-116.16-94.72-210.656-211.2-210.656-116.448 0-211.2 94.496-211.2 210.656V416a32 32 0 1 1-64 0v-24.704c0-140.128 105.76-255.872 241.792-272.448V32a32 32 0 1 1 64 0v86.432c137.376 15.232 244.608 131.712 244.608 272.864V416a32 32 0 0 1-32 32"  horiz-adv-x="1024" />

    
    <glyph glyph-name="translation" unicode="&#59192;" d="M410.208 576.224a96 96 0 0 0 192 0v-192.448a96 96 0 0 0-96-95.744 96 96 0 0 0-96 95.744V576.224z m96-352.192c88.192 0 160 71.648 160 159.744V576.224a160.096 160.096 0 0 1-160 159.776c-88.224 0-160-71.68-160-159.776v-192.448a160.032 160.032 0 0 1 160-159.744zM742.4 448a32 32 0 0 1-32-32v-24.672c0-116.192-94.72-210.688-211.2-210.688-116.448 0-211.2 94.496-211.2 210.688V416a32 32 0 0 1-64 0v-24.672c0-140.16 105.76-255.904 241.76-272.448V32a32 32 0 0 1 64 0v86.432c137.408 15.264 244.64 131.744 244.64 272.896V416a32 32 0 0 1-32 32"  horiz-adv-x="1024" />

    
    <glyph glyph-name="trash" unicode="&#59193;" d="M736 543.968L736.096 96h-0.128L288 96.032 288.032 544 736 543.968zM384 672h256v-64h-256V672z m448-64h-128V693.376C704 713.952 687.232 736 640.16 736h-256.32C336.768 736 320 713.952 320 693.376V608H192a32 32 0 1 1 0-64h32V96.032C224 60.704 252.704 32 288.032 32h447.936A64.064 64.064 0 0 1 800 96.032V544h32a32 32 0 1 1 0 64zM608 205.44a32 32 0 0 1 32 32V448a32 32 0 1 1-64 0v-210.56a32 32 0 0 1 32-32M416 205.44a32 32 0 0 1 32 32V448a32 32 0 1 1-64 0v-210.56a32 32 0 0 1 32-32"  horiz-adv-x="1024" />

    
    <glyph glyph-name="trash_fill" unicode="&#59194;" d="M832 608h-128V693.376C704 713.984 687.232 736 640.128 736h-256.256C336.768 736 320 713.984 320 693.376V608H192a32 32 0 0 1 0-64h224l192-0.032V544h224a32 32 0 0 1 0 64zM384 448a32 32 0 0 0 64 0v-210.528a32 32 0 0 0-64 0V448z m192 0a32 32 0 0 0 64 0v-210.528a32 32 0 0 0-64 0V448z m32 47.136H224v-399.104c0-20.672 9.984-38.848 25.184-50.56 10.784-8.32 24.16-13.472 38.848-13.472h447.936c14.688 0 28.064 5.152 38.88 13.472 15.168 11.712 25.152 29.888 25.152 50.56V495.136h-192z"  horiz-adv-x="1024" />

    
    <glyph glyph-name="search" unicode="&#59201;" d="M192 416a256 256 0 1 0 512 0 256 256 0 0 0-512 0m631.776-362.496l-143.2 143.168A318.464 318.464 0 0 1 768 416c0 176.736-143.264 320-320 320S128 592.736 128 416s143.264-320 320-320a318.016 318.016 0 0 1 184.16 58.592l146.336-146.368c12.512-12.48 32.768-12.48 45.28 0 12.48 12.512 12.48 32.768 0 45.28"  horiz-adv-x="1024" />

    
    <glyph glyph-name="searchfill" unicode="&#59202;" d="M823.776 53.504l-143.2 143.168A318.464 318.464 0 0 1 768 416c0 176.736-143.264 320-320 320S128 592.736 128 416s143.264-320 320-320a318.016 318.016 0 0 1 184.16 58.592l146.336-146.368c12.512-12.48 32.768-12.48 45.28 0 12.48 12.512 12.48 32.768 0 45.28"  horiz-adv-x="1024" />

    
    <glyph glyph-name="packup" unicode="&#59209;" d="M793.024 185.728a32 32 0 1 1 45.952 44.544l-310.304 320a32 32 0 0 1-46.4-0.48l-297.696-320a32 32 0 0 1 46.848-43.584l274.752 295.328 286.848-295.808z"  horiz-adv-x="1024" />

    
    <glyph glyph-name="unfold" unicode="&#59210;" d="M231.424 549.792a32 32 0 0 1-46.848-43.584l297.696-320a32 32 0 0 1 46.4-0.48l310.304 320a32 32 0 1 1-45.952 44.544l-286.848-295.808-274.752 295.36z"  horiz-adv-x="1024" />

    


  </font>
</defs>
</svg>
